<svg width="19" height="19" viewBox="0 0 19 19" fill="none" xmlns="http://www.w3.org/2000/svg">
<g clip-path="url(#clip0)">
<path d="M9.60288 6.73535H2.47848C2.32477 6.73535 2.2002 6.85997 2.2002 7.01364C2.2002 7.16734 2.32477 7.29192 2.47848 7.29192H9.60292C9.75663 7.29192 9.8812 7.16731 9.8812 7.01364C9.8812 6.85997 9.75663 6.73535 9.60288 6.73535Z" fill="#92A5D1"/>
<path d="M9.60288 8.69141H2.47848C2.32477 8.69141 2.2002 8.81602 2.2002 8.96969C2.2002 9.12336 2.32477 9.24797 2.47848 9.24797H9.60292C9.75663 9.24797 9.8812 9.12336 9.8812 8.96969C9.8812 8.81602 9.75663 8.69141 9.60288 8.69141Z" fill="#92A5D1"/>
<path d="M9.60288 10.6465H2.47848C2.32477 10.6465 2.2002 10.7711 2.2002 10.9248C2.2002 11.0784 2.32477 11.203 2.47848 11.203H9.60292C9.75663 11.203 9.8812 11.0784 9.8812 10.9248C9.8812 10.7711 9.75663 10.6465 9.60288 10.6465Z" fill="#92A5D1"/>
<path d="M9.8812 12.8808C9.8812 12.7271 9.75663 12.6025 9.60292 12.6025H2.47848C2.32477 12.6025 2.2002 12.7272 2.2002 12.8808C2.2002 13.0345 2.32477 13.1591 2.47848 13.1591H9.60292C9.75663 13.1591 9.8812 13.0345 9.8812 12.8808Z" fill="#92A5D1"/>
<path d="M2.47848 15.4678C2.32477 15.4678 2.2002 15.5924 2.2002 15.7461C2.2002 15.8997 2.32477 16.0243 2.47848 16.0243H6.04981C6.20352 16.0243 6.32809 15.8997 6.32809 15.7461C6.32809 15.5924 6.20352 15.4678 6.04981 15.4678H2.47848Z" fill="#92A5D1"/>
<path d="M12.8099 3.44585V2.54283C12.8099 2.19882 12.5301 1.91895 12.186 1.91895H6.47242C6.12841 1.91895 5.84857 2.19882 5.84857 2.54283V3.44585C5.84857 3.78985 6.12841 4.06969 6.47242 4.06969H6.95491C7.10862 4.06969 7.2332 3.94508 7.2332 3.79141C7.2332 3.6377 7.10862 3.51313 6.95491 3.51313H6.47242C6.43534 3.51313 6.40518 3.48296 6.40518 3.44588V2.54283C6.40518 2.50576 6.43534 2.47555 6.47242 2.47555H12.186C12.2231 2.47555 12.2533 2.50572 12.2533 2.54283V3.44585C12.2533 3.48292 12.2231 3.51309 12.186 3.51309H8.25597C8.10226 3.51309 7.97768 3.6377 7.97768 3.79137C7.97768 3.94508 8.10226 4.06966 8.25597 4.06966H12.1861C12.5301 4.06973 12.8099 3.78985 12.8099 3.44585Z" fill="#92A5D1"/>
<path d="M14.8908 16.97C14.7371 16.97 14.6125 17.0946 14.6125 17.2483V17.623C14.6125 18.0753 14.2445 18.4434 13.7921 18.4434H1.48064C1.02832 18.4434 0.660265 18.0754 0.660265 17.623V4.24635C0.660265 4.18612 0.667316 4.12705 0.679896 4.06956H3.21384C3.74287 4.06956 4.17326 3.63917 4.17326 3.11014V0.576234C4.23074 0.563654 4.28979 0.556603 4.35001 0.556603H13.7921C14.2444 0.556603 14.6125 0.924617 14.6125 1.37698V5.08205C14.6125 5.23576 14.7371 5.36034 14.8908 5.36034C15.0445 5.36034 15.1691 5.23572 15.1691 5.08205V1.37694C15.1691 0.617723 14.5514 0 13.7921 0H4.35005C3.98226 0 3.63644 0.143242 3.37637 0.403305L0.506966 3.27271C0.246904 3.53278 0.103699 3.87856 0.103699 4.24639V17.6231C0.103699 18.3823 0.721384 19 1.48064 19H13.7921C14.5514 19 15.1691 18.3823 15.1691 17.6231V17.2483C15.1691 17.0946 15.0445 16.97 14.8908 16.97ZM3.6167 0.950148V3.11014C3.6167 3.33227 3.43597 3.513 3.21384 3.513H1.05385L3.6167 0.950148Z" fill="#92A5D1"/>
<path d="M18.7025 9.94501C18.8978 9.65827 18.9483 9.30458 18.8411 8.9746C18.7339 8.64463 18.4851 8.3882 18.1585 8.27109C17.9419 8.19338 17.7974 7.99447 17.7905 7.76439C17.78 7.41761 17.6129 7.10173 17.3322 6.89778C17.0515 6.69386 16.6994 6.63267 16.3665 6.72982C16.1454 6.79432 15.9117 6.71832 15.7709 6.5363C15.5586 6.26187 15.2378 6.10449 14.8908 6.10449C14.5439 6.10449 14.2231 6.26187 14.0107 6.5363C13.8699 6.71836 13.636 6.79424 13.4151 6.72982C13.0821 6.6326 12.7301 6.69386 12.4493 6.89778C12.1687 7.10173 12.0017 7.41757 11.9912 7.76436C11.9842 7.99443 11.8397 8.1933 11.623 8.27105C11.2965 8.38816 11.0477 8.64463 10.9405 8.97457C10.8333 9.30454 10.8838 9.65827 11.0792 9.94498C11.2087 10.1352 11.2087 10.381 11.0792 10.5713C10.8838 10.858 10.8333 11.2117 10.9405 11.5417C11.0477 11.8717 11.2965 12.1281 11.623 12.2452C11.8397 12.323 11.9843 12.5219 11.9912 12.7519C12.0008 13.0709 12.147 13.3707 12.3923 13.5742C12.5541 13.7085 12.7486 13.7926 12.952 13.8207V16.3544C12.952 16.5682 13.068 16.7658 13.2546 16.8701C13.441 16.9742 13.6702 16.9696 13.8523 16.8574L14.873 16.2291C14.8897 16.2188 14.8996 16.2234 14.9087 16.2291L15.9294 16.8574C16.1114 16.9695 16.3405 16.9743 16.5271 16.87C16.7138 16.7657 16.8297 16.5681 16.8297 16.3544V13.8206C17.0331 13.7925 17.2275 13.7085 17.3893 13.5742C17.6347 13.3707 17.7809 13.071 17.7906 12.7519C17.7975 12.5218 17.942 12.3229 18.1587 12.2452C18.4853 12.1281 18.7341 11.8716 18.8412 11.5416C18.9485 11.2117 18.8979 10.858 18.7026 10.5712C18.5728 10.3811 18.5728 10.1353 18.7025 9.94501ZM16.2211 16.3834L15.2004 15.7551C15.0107 15.6383 14.7711 15.6381 14.5812 15.7551L13.5605 16.3834C13.5373 16.3976 13.5086 16.3813 13.5086 16.3544V13.7678C13.6999 13.7457 13.8896 13.8235 14.0107 13.98C14.2231 14.2544 14.5439 14.4118 14.8908 14.4118C15.2378 14.4118 15.5586 14.2544 15.7709 13.98C15.892 13.8235 16.0817 13.7457 16.273 13.7678V16.3544C16.273 16.3814 16.244 16.3976 16.2211 16.3834ZM18.2425 10.8847C18.3402 11.0281 18.3654 11.2048 18.3118 11.3697C18.2582 11.5346 18.1339 11.6628 17.9706 11.7214C17.5371 11.8769 17.248 12.2748 17.2341 12.7351C17.2292 12.897 17.158 13.0428 17.0338 13.1459C16.8942 13.2618 16.7051 13.3055 16.5224 13.2522C16.0803 13.1232 15.6125 13.2752 15.3306 13.6394C15.2245 13.7766 15.0642 13.8552 14.8908 13.8552C14.7174 13.8552 14.557 13.7766 14.4509 13.6394C14.2357 13.3613 13.912 13.2069 13.5742 13.2069C13.4697 13.2069 13.3637 13.2217 13.2592 13.2522C13.0748 13.3059 12.8862 13.2609 12.7477 13.1459C12.6235 13.0428 12.5523 12.8969 12.5475 12.7351C12.5335 12.2748 12.2444 11.8769 11.8109 11.7213C11.6477 11.6628 11.5234 11.5346 11.4697 11.3697C11.4161 11.2048 11.4414 11.028 11.5391 10.8847C11.7983 10.5041 11.7983 10.0123 11.5391 9.63162C11.4414 9.48831 11.4161 9.31152 11.4697 9.14657C11.5233 8.98166 11.6477 8.85348 11.8109 8.79496C12.2444 8.63943 12.5335 8.24151 12.5475 7.78117C12.5527 7.60783 12.6361 7.44997 12.7764 7.34806C12.9167 7.24612 13.0926 7.21555 13.2591 7.26409C13.7011 7.39311 14.1691 7.24108 14.4509 6.87689C14.557 6.73973 14.7173 6.66106 14.8908 6.66106C15.0642 6.66106 15.2245 6.73969 15.3306 6.87685C15.6125 7.24108 16.0802 7.39308 16.5224 7.26409C16.6889 7.21547 16.8648 7.24609 17.0051 7.34803C17.1454 7.44993 17.2289 7.60783 17.2341 7.78113C17.248 8.24147 17.5371 8.63943 17.9706 8.79492C18.1339 8.85344 18.2582 8.98162 18.3118 9.14653C18.3654 9.31145 18.3402 9.48827 18.2425 9.63155C17.9831 10.0122 17.9831 10.5041 18.2425 10.8847Z" fill="#92A5D1"/>
<path d="M14.8908 7.92578C13.6047 7.92578 12.5583 8.97212 12.5583 10.2583C12.5583 11.5444 13.6047 12.5907 14.8908 12.5907C16.1769 12.5907 17.2233 11.5444 17.2233 10.2583C17.2233 8.97212 16.1769 7.92578 14.8908 7.92578ZM14.8908 12.0342C13.9116 12.0342 13.1149 11.2375 13.1149 10.2583C13.1149 9.27909 13.9116 8.48238 14.8908 8.48238C15.8701 8.48238 16.6667 9.27905 16.6667 10.2583C16.6667 11.2375 15.87 12.0342 14.8908 12.0342Z" fill="#92A5D1"/>
</g>
<defs>
<clipPath id="clip0">
<rect width="19" height="19" fill="white"/>
</clipPath>
</defs>
</svg>
