<?xml version="1.0" encoding="iso-8859-1"?>
<!-- Generator: Adobe Illustrator 19.0.0, SVG Export Plug-In . SVG Version: 6.00 Build 0)  -->
<svg version="1.1" id="Capa_1" xmlns="http://www.w3.org/2000/svg" xmlns:xlink="http://www.w3.org/1999/xlink" x="0px" y="0px"
	 viewBox="0 0 392.105 392.105" style="enable-background:new 0 0 392.105 392.105;" xml:space="preserve">
<g>
	<g>
		<path d="M161.028,127.087h-40c-5.523,0-10,4.477-10,10s4.477,10,10,10h40c5.523,0,10-4.477,10-10S166.551,127.087,161.028,127.087
			z"/>
	</g>
</g>
<g>
	<g>
		<path d="M161.028,209.087h-40c-5.523,0-10,4.477-10,10c0,5.523,4.477,10,10,10h40c5.523,0,10-4.477,10-10
			C171.028,213.564,166.551,209.087,161.028,209.087z"/>
	</g>
</g>
<g>
	<g>
		<path d="M161.028,293.087h-40c-5.523,0-10,4.477-10,10c0,5.523,4.477,10,10,10h40c5.523,0,10-4.477,10-10
			C171.028,297.564,166.551,293.087,161.028,293.087z"/>
	</g>
</g>
<g>
	<g>
		<path d="M359.109,220.03c-20.15-25.419-50.818-40.228-83.255-40.203h0c-1.588,0-2.826,0.041-4.826,0.111V53.657
			c0-11.45-7.187-27.732-41.842-40.273C205.339,4.753,173.881,0,140.528,0C107.175,0,75.74,4.753,51.891,13.387
			c-34.654,12.538-41.863,28.82-41.863,40.27v248.73c0,11.455,7.23,27.741,41.882,40.279c23.841,8.627,55.322,13.378,88.684,13.378
			c17.473,0.037,34.921-1.35,52.169-4.146c36.414,45.935,103.172,53.653,149.107,17.239S395.523,265.965,359.109,220.03z
			 M140.572,20c72.635,0,110.63,21.911,110.63,33.657c0,11.746-38,33.657-110.63,33.657S29.941,65.402,29.941,53.657
			S67.937,20,140.572,20z M140.528,170.032c-72.635,0-110.5-21.911-110.5-33.657V83.467C36.946,87.694,44.28,91.2,51.914,93.93
			c23.847,8.631,55.327,13.384,88.68,13.384c33.353,0,64.756-4.753,88.6-13.384c7.618-2.729,14.934-6.235,21.834-10.463v52.908
			C251.028,148.121,213.163,170.032,140.528,170.032z M251.028,166.193v16.551c-34.984,8.523-63.312,34.11-75.339,68.049
			c-11.659,1.317-23.384,1.971-35.117,1.957c-72.635,0-110.544-21.912-110.544-33.657v-52.9c6.917,4.226,14.249,7.732,21.882,10.461
			c23.841,8.627,55.322,13.378,88.684,13.378s64.766-4.751,88.607-13.378C236.816,173.926,244.131,170.42,251.028,166.193z
			 M140.572,336.042c-31.1,0-60.143-4.327-81.857-12.184c-21.206-7.671-28.687-16.363-28.687-21.471v-53.476
			c6.917,4.226,14.249,7.732,21.882,10.461c23.841,8.627,55.322,13.378,88.684,13.378c10.268,0,20.363-0.459,30.193-1.347
			c-2.959,21.231,0.593,42.86,10.187,62.03C167.578,335.184,154.082,336.055,140.572,336.042z M275.941,372.174
			c-47.593,0-86.174-38.581-86.174-86.174s38.581-86.174,86.174-86.174c47.593,0,86.174,38.581,86.174,86.174
			C362.061,333.57,323.511,372.121,275.941,372.174z"/>
	</g>
</g>
<g>
	<g>
		<path d="M314.235,269.919l-31.481-29.293c-3.839-3.573-9.787-3.573-13.626,0l-31.475,29.293c-4.05,3.767-4.28,10.104-0.514,14.154
			s10.104,4.28,14.154,0.514c0.01-0.009,0.02-0.018,0.03-0.028l14.705-13.645v53.141c0,5.523,4.477,10,10,10c5.523,0,10-4.477,10-10
			v-53.142l14.619,13.646c4.043,3.752,10.362,3.517,14.114-0.526C318.513,279.99,318.278,273.671,314.235,269.919z"/>
	</g>
</g>
<g>
</g>
<g>
</g>
<g>
</g>
<g>
</g>
<g>
</g>
<g>
</g>
<g>
</g>
<g>
</g>
<g>
</g>
<g>
</g>
<g>
</g>
<g>
</g>
<g>
</g>
<g>
</g>
<g>
</g>
</svg>
