<?xml version="1.0" encoding="utf-8"?>
<svg xmlns="http://www.w3.org/2000/svg" height="48" width="48" viewBox="0 0 48 48">
  <g>
    <path id="path1" transform="rotate(0,24,24) translate(11,12.4129974247053) scale(0.812499999992792,0.812499999992792)  " fill="#92A5D1" d="M25.897975,18.148801C24.223954,18.148801,22.930947,19.090818,22.255925,20.612791L22.000951,21.292845 2.40483,21.292845 2.1718269,21.239867 3.0548278,21.980834 3.9968496,23.810791 5.7828398,22.292846 6.880838,22.292846 7.9768525,24.124877 9.8028823,22.292846 10.929873,22.292846 12.02488,24.124877 13.850879,22.292846 21.694949,22.292846 21.796939,23.017821C22.061956,25.231812 23.594953,26.488892 25.897975,26.488892 28.194985,26.488892 30.063985,24.596802 30.063985,22.31079 30.063985,20.0249 28.194985,18.148801 25.897975,18.148801z M25.897975,16.276852C29.262984,16.276852 32.000001,19.044797 32.000001,22.398803 32.000001,25.752808 29.262984,28.521852 25.897975,28.521852 22.921945,28.521852 20.699918,27.292848 20.029931,24.292847L14.6549,24.292847 11.639868,27.157838 10.121884,24.538818 7.5918713,27.037843 6.0448347,24.431885 3.4738365,26.750854 1.5118194,23.145873 0.58380508,22.298827C-0.035186626,21.61682 -0.052185014,21.005858 0.042817079,20.614866 0.12082013,20.292845 0.38681287,19.700804 1.2908097,19.360838L1.3918238,19.408811 2.2838269,19.292845 20.77493,19.292845C21.831943,17.292844,23.666946,16.276852,25.897975,16.276852z M14.822008,15.257987L16.758996,15.257987 16.758996,17.194975 14.822008,17.194975z M16.043004,0C18.733008,0 20.759011,2.189992 20.759011,4.8819828 20.759011,7.147975 19.664008,9.1709685 16.759006,9.6549668L16.759006,12.352958C16.759006,12.887956 16.326005,13.320955 15.791004,13.320955 15.256003,13.320955 14.823003,12.887956 14.823003,12.352958L14.823003,8.7949696C14.823003,8.2599716 15.419004,7.826973 15.954004,7.826973 17.281005,7.826973 18.905007,6.5409775 18.905007,4.8819828 18.905007,3.2859888 17.599006,1.9369926 16.005004,1.9369926 14.389002,1.9369926 13.144,3.1789885 13.144,4.7639837 13.144,5.2989817 12.719999,5.7319803 12.185999,5.7319803 11.650998,5.7319803 11.221997,5.2989817 11.221997,4.7639837 11.221997,2.0929928 13.341001,0 16.043004,0z" />
  </g>
</svg>