<svg width="15" height="15" viewBox="0 0 15 15" fill="none" xmlns="http://www.w3.org/2000/svg">
<path d="M13.2776 0.603758C12.4712 -0.201253 11.1653 -0.201253 10.3589 0.603758L9.62823 1.33839L1.85073 9.11176L1.8342 9.12842C1.8302 9.13242 1.8302 9.13669 1.82594 9.13669C1.81767 9.14908 1.80528 9.16135 1.79714 9.17375C1.79714 9.17788 1.79288 9.17788 1.79288 9.18201C1.78461 9.19441 1.78061 9.20267 1.77222 9.21507C1.76822 9.2192 1.76822 9.2232 1.76408 9.22747C1.75995 9.23986 1.75582 9.24813 1.75156 9.26052C1.75156 9.26453 1.74755 9.26453 1.74755 9.26879L0.0219599 14.4578C-0.0286599 14.6056 0.00982148 14.7692 0.121004 14.8788C0.199129 14.9559 0.304501 14.999 0.414135 14.9986C0.458943 14.9979 0.503365 14.9909 0.546237 14.978L5.73128 13.2483C5.73529 13.2483 5.73529 13.2483 5.73955 13.2443C5.75259 13.2404 5.76512 13.2348 5.77661 13.2276C5.77984 13.2272 5.78268 13.2258 5.785 13.2236C5.79727 13.2153 5.8138 13.2069 5.8262 13.1987C5.83846 13.1905 5.85099 13.1781 5.86339 13.1699C5.86752 13.1656 5.87152 13.1656 5.87152 13.1616C5.87578 13.1575 5.88405 13.1535 5.88818 13.1451L14.3963 4.63694C15.2013 3.83051 15.2013 2.5246 14.3963 1.7183L13.2776 0.603758ZM5.59918 12.2781L2.72599 9.40502L9.91723 2.21378L12.7904 5.08684L5.59918 12.2781ZM2.32129 10.1687L4.83136 12.6787L1.06225 13.9336L2.32129 10.1687ZM13.8143 4.05895L13.3767 4.50071L10.5034 1.62739L10.9453 1.18576C11.4286 0.702802 12.212 0.702802 12.6955 1.18576L13.8183 2.30856C14.298 2.7941 14.2962 3.57574 13.8143 4.05895Z" fill="#EF7373"/>
</svg>
