<?xml version="1.0" encoding="iso-8859-1"?>
<!-- Generator: Adobe Illustrator 19.0.0, SVG Export Plug-In . SVG Version: 6.00 Build 0)  -->
<svg version="1.1" id="Capa_1" xmlns="http://www.w3.org/2000/svg" xmlns:xlink="http://www.w3.org/1999/xlink" x="0px" y="0px"
	 viewBox="0 0 512 512" style="enable-background:new 0 0 512 512;" xml:space="preserve">
<g>
	<g>
		<path d="M343.07,434.93c-3.9-3.91-10.24-3.91-14.14,0c-3.91,3.9-3.91,10.24,0,14.14c3.9,3.91,10.24,3.91,14.14,0
			C346.98,445.17,346.98,438.83,343.07,434.93z" fill="#92A5D1"/>
	</g>
</g>
<g>
	<g>
		<path d="M396,0H116C99.458,0,86,13.458,86,30v472c0,5.523,4.477,10,10,10h40c5.523,0,10-4.477,10-10v-10h220v10
			c0,5.523,4.477,10,10,10h40c5.523,0,10-4.477,10-10V30C426,13.458,412.542,0,396,0z M366,472H146V326h50
			c8.01,0,15.542-3.121,21.212-8.789C222.879,311.542,226,304.01,226,296c0-16.542-13.458-30-30-30h-50V60h220V472z M146,306v-20h50
			c5.514,0,10,4.486,10,10c0,2.668-1.041,5.179-2.931,7.069c-1.891,1.89-4.401,2.931-7.069,2.931H146z M406,492h-20V50
			c0-5.523-4.477-10-10-10H136c-5.523,0-10,4.477-10,10c0,20.504,0,421.457,0,442h-20V30c0-5.514,4.486-10,10-10h280
			c5.514,0,10,4.486,10,10V492z" fill="#92A5D1"/>
	</g>
</g>
<g>
	<g>
		<path d="M323.431,132.302c-1.198-3.612-4.342-6.231-8.112-6.756l-35.084-4.886L264.371,89c-1.696-3.385-5.157-5.52-8.94-5.52
			c-0.021,0-0.041,0-0.061,0c-3.806,0.023-7.27,2.205-8.933,5.628l-15.41,31.704l-34.491,4.325
			c-3.839,0.481-7.056,3.134-8.259,6.811c-1.204,3.677-0.179,7.718,2.632,10.377l25.027,23.673l-5.718,36.983
			c-0.579,3.743,1.007,7.492,4.097,9.684c3.092,2.193,7.156,2.448,10.494,0.667l31.251-16.675l31.451,16.292
			c3.38,1.75,7.461,1.432,10.526-0.825c3.066-2.256,4.585-6.057,3.919-9.805l-6.2-34.874l25.208-24.877
			C323.673,139.895,324.629,135.915,323.431,132.302z M277.966,156.902c-2.342,2.312-3.397,5.628-2.821,8.868l3.573,20.1
			l-18.128-9.39c-2.922-1.514-6.403-1.493-9.307,0.057l-18.244,9.734l3.464-22.404c0.502-3.248-0.624-6.535-3.011-8.792
			l-13.456-12.728l18.858-2.365c3.356-0.421,6.271-2.509,7.75-5.551l8.923-18.357l9.143,18.246c1.474,2.942,4.302,4.971,7.561,5.424
			l20.228,2.817L277.966,156.902z" fill="#92A5D1"/>
	</g>
</g>
<g>
	<g>
		<path d="M296,432H176c-5.523,0-10,4.477-10,10s4.477,10,10,10h120c5.523,0,10-4.477,10-10S301.523,432,296,432z" fill="#92A5D1"/>
	</g>
</g>
<g>
</g>
<g>
</g>
<g>
</g>
<g>
</g>
<g>
</g>
<g>
</g>
<g>
</g>
<g>
</g>
<g>
</g>
<g>
</g>
<g>
</g>
<g>
</g>
<g>
</g>
<g>
</g>
<g>
</g>
</svg>
