<svg width="24" height="30" viewBox="0 0 24 30" fill="none" xmlns="http://www.w3.org/2000/svg">
<path d="M17.3652 6.80111V6.16607C17.3652 3.58511 15.2652 1.48535 12.6847 1.48535H12.4457C10.7549 1.48535 9.27501 2.38991 8.45229 3.73751C8.33733 3.72887 8.22213 3.71999 8.10477 3.71999C5.57373 3.71999 3.51477 5.77895 3.51477 8.30999C3.51477 10.1611 4.63413 11.8303 6.32541 12.5419V20.7146L8.12541 22.5146L9.92517 20.7146V20.1765L9.23445 19.4856H9.92517V17.5531L9.23445 16.8621H9.92517V15.1987L9.44013 14.6853H9.92517V12.5244C11.5917 11.8032 12.6948 10.1405 12.6948 8.30975C12.6948 6.16703 11.2171 4.36799 9.22893 3.86471C9.94797 2.86175 11.1206 2.20511 12.4459 2.20511H12.6849C14.8689 2.20511 16.6454 3.98183 16.6454 6.16583V6.77735C14.7722 6.90191 13.2854 8.46119 13.2854 10.3651V13.9651C13.2854 15.9501 14.9004 17.5651 16.8854 17.5651C18.8705 17.5651 20.4854 15.9501 20.4854 13.9651V10.3651C20.4852 8.54327 19.1237 7.03679 17.3652 6.80111ZM8.48541 7.12511V6.40703C8.70549 6.53783 8.85477 6.77543 8.85477 7.04975C8.85477 7.46351 8.51853 7.79975 8.10477 7.79975C7.69101 7.79975 7.35477 7.46351 7.35477 7.04975C7.35477 6.75887 7.52277 6.50903 7.76541 6.38471V7.12535H8.48541V7.12511ZM11.9748 8.30975C11.9748 9.92495 10.9565 11.3851 9.44085 11.9431L9.20517 12.0297V13.9651H7.77021L9.20517 15.4848V16.1417H7.49637L9.20517 17.8507V18.7651H7.49637L9.17613 20.4451L8.12541 21.4961L7.04541 20.4161V12.0415L6.80613 11.9563C5.26821 11.4086 4.23477 9.94319 4.23477 8.30999C4.23477 6.17783 5.96781 4.44335 8.09925 4.44023C7.95189 4.81031 7.84989 5.20271 7.80141 5.61191C7.13613 5.75231 6.63501 6.34367 6.63501 7.04999C6.63501 7.86047 7.29453 8.51999 8.10501 8.51999C8.91549 8.51999 9.57501 7.86047 9.57501 7.04999C9.57501 6.38519 9.13101 5.82287 8.52453 5.64191C8.57757 5.24399 8.68917 4.86551 8.85141 4.51391C10.6291 4.86263 11.9748 6.43127 11.9748 8.30975ZM17.2987 8.80511C17.34 8.87591 17.3652 8.95727 17.3652 9.04511C17.3652 9.30983 17.1501 9.52511 16.8852 9.52511C16.6202 9.52511 16.4052 9.30983 16.4052 9.04511C16.4052 8.86847 16.5021 8.71511 16.6452 8.63183V8.80511H17.2987ZM19.7652 13.9651C19.7652 15.5532 18.4733 16.8451 16.8852 16.8451C15.2971 16.8451 14.0052 15.5532 14.0052 13.9651V10.3651C14.0052 8.85815 15.1692 7.61999 16.6452 7.49735V7.86959C16.0982 7.98095 15.6852 8.46575 15.6852 9.04511C15.6852 9.70679 16.2233 10.2451 16.8852 10.2451C17.5471 10.2451 18.0852 9.70679 18.0852 9.04511C18.0852 8.55431 17.7885 8.13239 17.3652 7.94687V7.52855C18.725 7.75799 19.7652 8.94095 19.7652 10.3651V13.9651Z" fill="#92A5D1"/>
<path d="M19.0452 11.8047H14.7252V12.5247H19.0452V11.8047Z" fill="#92A5D1"/>
<path d="M18.5651 13.2246H15.2051V13.9446H18.5651V13.2246Z" fill="#92A5D1"/>
</svg>
