<svg width="27" height="27" viewBox="0 0 27 27" fill="none" xmlns="http://www.w3.org/2000/svg">
<g clip-path="url(#clip0)">
<path d="M14.1321 19.0307C13.932 19.0307 13.7698 19.1928 13.7698 19.393L13.7698 22.0523C13.7698 22.2524 13.932 22.4146 14.1321 22.4147C14.2322 22.4147 14.3228 22.3741 14.3883 22.3086C14.4539 22.243 14.4944 22.1524 14.4944 22.0524L14.4944 19.393C14.4944 19.1929 14.3322 19.0307 14.1321 19.0307Z" fill="#92A5D1"/>
<path d="M13.8759 18.1871C13.5462 18.5168 14.058 19.0297 14.3883 18.6995C14.7179 18.3698 14.2061 17.8569 13.8759 18.1871Z" fill="#92A5D1"/>
<path d="M15.7111 3.45463L10.3117 3.45463C10.2156 3.45468 10.1234 3.4928 10.0555 3.56076C9.9875 3.62871 9.94938 3.72086 9.94936 3.81694L9.94936 7.38024L9.94936 7.38029C9.94936 7.38029 9.94938 7.38031 9.94936 7.38034L9.94936 10.9435C9.94936 10.9435 9.94936 10.9436 9.94936 10.9436C9.94936 10.9436 9.94936 10.9437 9.94936 10.9437L9.94936 21.6339C9.94936 21.6339 9.94938 21.6339 9.94936 21.6339L9.94933 23.4155C9.94938 23.5116 9.98753 23.6037 10.0555 23.6717C10.1234 23.7396 10.2156 23.7778 10.3116 23.7778L15.7112 23.7778C15.8113 23.7778 15.9018 23.7372 15.9674 23.6717C16.0329 23.6061 16.0735 23.5156 16.0735 23.4155L16.0735 3.81694C16.0735 3.72088 16.0353 3.62868 15.9674 3.56076C15.8994 3.4928 15.8072 3.45466 15.7111 3.45463ZM15.3488 23.0531L10.674 23.0531L10.674 21.9963L11.5716 21.9963C11.6717 21.9963 11.7623 21.9557 11.8278 21.8902C11.8934 21.8246 11.9339 21.7341 11.9339 21.634C11.9339 21.4339 11.7717 21.2717 11.5716 21.2716L10.674 21.2716L10.674 20.2144L12.3112 20.2144C12.4113 20.2144 12.5019 20.1739 12.5674 20.1083C12.633 20.0428 12.6735 19.9522 12.6735 19.8522C12.6735 19.6521 12.5113 19.4898 12.3112 19.4898L10.6739 19.4898L10.6739 18.4327L11.5716 18.4327C11.6716 18.4327 11.7622 18.3922 11.8278 18.3266C11.8933 18.2611 11.9339 18.1705 11.9339 18.0704C11.9339 17.8703 11.7716 17.7081 11.5715 17.7081L10.6739 17.7081L10.6739 16.6512L12.3114 16.6512C12.4114 16.6512 12.502 16.6106 12.5675 16.5451C12.6331 16.4795 12.6736 16.3889 12.6736 16.2889C12.6736 16.0888 12.5114 15.9266 12.3113 15.9266L10.6738 15.9266L10.6738 14.8696L11.5713 14.8694C11.6713 14.8694 11.7619 14.8289 11.8274 14.7633C11.893 14.6978 11.9335 14.6072 11.9335 14.5071C11.9334 14.307 11.7712 14.1448 11.5711 14.1448L10.6738 14.1451L10.6738 13.0877L12.3113 13.0877C12.4114 13.0877 12.5019 13.0472 12.5675 12.9816C12.633 12.9161 12.6736 12.8255 12.6736 12.7254C12.6736 12.5253 12.5114 12.3631 12.3112 12.3631L10.6737 12.3631L10.6737 11.3062L11.5714 11.3062C11.6714 11.3062 11.762 11.2657 11.8275 11.2001C11.8931 11.1346 11.9336 11.044 11.9336 10.9439C11.9336 10.7438 11.7714 10.5816 11.5713 10.5816L10.6739 10.5815L10.6739 9.52453L12.3114 9.52455C12.4114 9.52455 12.502 9.484 12.5675 9.41846C12.6331 9.35289 12.6736 9.26232 12.6736 9.16227C12.6736 8.96217 12.5114 8.79996 12.3113 8.79996L10.6738 8.79993L10.6738 7.74281L11.5712 7.7428C11.6713 7.7428 11.7618 7.70225 11.8274 7.63671C11.8929 7.57117 11.9335 7.48059 11.9335 7.38052C11.9335 7.18042 11.7713 7.01821 11.5711 7.01818L10.6738 7.01813L10.6738 5.96095L12.3113 5.96095C12.4114 5.96095 12.502 5.92039 12.5675 5.85485C12.633 5.78931 12.6736 5.69869 12.6736 5.59867C12.6736 5.39857 12.5114 5.23636 12.3113 5.23636L10.674 5.23618L10.674 4.17931L15.3488 4.17931L15.3488 23.0531Z" fill="#92A5D1"/>
</g>
<defs>
<clipPath id="clip0">
<rect width="18.4009" height="18.4009" fill="white" transform="translate(0 13.6162) rotate(-45)"/>
</clipPath>
</defs>
</svg>
