<?xml version="1.0" encoding="utf-8"?>
<svg xmlns="http://www.w3.org/2000/svg" height="128" width="128" viewBox="0 0 128 128">
  <g>
    <path id="path1" transform="rotate(0,64,64) translate(6.0251561999321,5) scale(3.6875,3.6875)  " fill="#92A5D1" d="M8.665652,17.912018C6.5326397,18.552002,5.1076252,19.846008,4.9036291,21.304016L18.120711,21.304016C17.917737,19.846008 16.492709,18.552002 14.360703,17.912018 13.558695,18.376007 12.628695,18.63501 11.640681,18.664001 11.558679,18.679016 11.477685,18.69101 11.372674,18.692993 11.12966,18.686005 10.889668,18.653015 10.686663,18.60199 9.9676635,18.5 9.2736585,18.263 8.665652,17.912018z M17.084723,17.078003C16.903722,17.132996 16.725713,17.194 16.547702,17.264008 18.073714,18.054993 19.140738,19.188995 19.554744,20.470001L26.538806,20.470001C26.334796,19.013 24.909766,17.71701 22.778767,17.078003 21.97676,17.541992 21.044745,17.800995 20.05075,17.833008 19.972747,17.846008 19.893735,17.856995 19.791745,17.859009 19.550746,17.854004 19.302727,17.821014 19.104727,17.768005 18.386735,17.665009 17.690715,17.429016 17.084723,17.078003z M11.512689,11.113007C9.8446767,11.113007 8.4866493,12.713989 8.4866493,14.166992 8.4866493,15.622009 9.8446767,17.078003 11.512689,17.078003 13.180701,17.078003 14.53969,15.622009 14.53969,14.166992 14.53969,12.713989 13.180701,11.113007 11.512689,11.113007z M19.57574,10.522003C17.90672,10.522003 16.547702,12.122009 16.547702,13.575989 16.547702,15.031006 17.90672,16.487 19.57574,16.487 21.241738,16.487 22.600756,15.031006 22.600756,13.575989 22.600756,12.122009 21.241738,10.522003 19.57574,10.522003z M16.117705,0C16.117705,0 21.617747,5.3880005 31.302821,5.3880005 31.302821,5.3880005 32.286837,16.165009 29.058816,22.257996 26.803794,26.507996 22.246751,29.946014 15.719722,32 9.1946475,29.946014 4.6396196,26.34201 2.387603,22.09201 -0.84441651,15.997009 0.14158355,5.3880005 0.14158377,5.3880005 9.8256643,5.3880005 16.117705,0 16.117705,0z" />
  </g>
</svg>

