<svg width="19" height="19" viewBox="0 0 19 19" fill="none" xmlns="http://www.w3.org/2000/svg">
<path d="M17.0848 6.23438C16.8143 6.23374 16.5502 6.31626 16.3281 6.47078V5.9375C16.3277 5.54396 16.1711 5.16666 15.8929 4.88838C15.6146 4.6101 15.2373 4.45357 14.8438 4.45312H4.15625C3.76271 4.45357 3.38541 4.6101 3.10713 4.88838C2.82885 5.16666 2.67232 5.54396 2.67188 5.9375V6.47078C2.47352 6.33302 2.24126 6.25218 2.00024 6.23699C1.75923 6.22181 1.51865 6.27287 1.30458 6.38464C1.09051 6.49641 0.91111 6.66463 0.78581 6.87107C0.66051 7.07751 0.594091 7.31431 0.59375 7.5558V7.56239C0.593728 7.69606 0.614012 7.82896 0.653908 7.95654L1.83124 11.724C1.9229 12.0206 2.10564 12.2807 2.35352 12.4676C2.6014 12.6544 2.90183 12.7585 3.21217 12.7649L2.97279 14.2012C2.96571 14.2437 2.96797 14.2873 2.97942 14.3289C2.99087 14.3704 3.01124 14.409 3.03911 14.4419C3.06698 14.4748 3.10168 14.5012 3.1408 14.5194C3.17991 14.5375 3.22251 14.5469 3.26562 14.5469H3.85938C3.90825 14.5469 3.95637 14.5348 3.99946 14.5117C4.04255 14.4887 4.07928 14.4553 4.10638 14.4147L5.20575 12.7656H13.7943L14.8936 14.4147C14.9207 14.4553 14.9575 14.4887 15.0005 14.5117C15.0436 14.5348 15.0918 14.5469 15.1406 14.5469H15.7344C15.7775 14.5469 15.8201 14.5375 15.8592 14.5194C15.8983 14.5012 15.933 14.4748 15.9609 14.4419C15.9888 14.409 16.0091 14.3704 16.0206 14.3289C16.032 14.2873 16.0343 14.2437 16.0272 14.2012L15.7878 12.7649C16.0982 12.7585 16.3986 12.6544 16.6465 12.4676C16.8944 12.2807 17.0771 12.0206 17.1688 11.724L18.3461 7.95654C18.386 7.82896 18.4063 7.69606 18.4062 7.56239V7.5558C18.4059 7.20546 18.2665 6.86958 18.0188 6.62185C17.771 6.37412 17.4352 6.23477 17.0848 6.23438ZM4.15625 5.04688H14.8438C15.0799 5.04715 15.3063 5.14107 15.4732 5.30803C15.6402 5.475 15.7341 5.70137 15.7344 5.9375V7.45144L15.2222 9.11616C15.1128 8.95974 14.9673 8.832 14.7981 8.74377C14.6289 8.65555 14.4409 8.60945 14.25 8.60938H10.3906C10.222 8.60935 10.0554 8.64532 9.90177 8.71486C9.74818 8.78441 9.61121 8.88594 9.5 9.01267C9.38879 8.88594 9.25182 8.78441 9.09823 8.71486C8.94464 8.64532 8.77798 8.60935 8.60938 8.60938H4.75C4.55915 8.60945 4.37113 8.65555 4.20189 8.74377C4.03265 8.832 3.88719 8.95974 3.77785 9.11616L3.26562 7.45144V5.9375C3.2659 5.70137 3.35982 5.475 3.52678 5.30803C3.69375 5.14107 3.92012 5.04715 4.15625 5.04688ZM9.20312 10.0938H4.15625V9.79688C4.15643 9.63946 4.21904 9.48854 4.33035 9.37723C4.44166 9.26592 4.59258 9.20331 4.75 9.20312H8.60938C8.76679 9.20331 8.91771 9.26592 9.02902 9.37723C9.14033 9.48854 9.20294 9.63946 9.20312 9.79688V10.0938ZM14.8438 10.0938H9.79688V9.79688C9.79706 9.63946 9.85967 9.48854 9.97098 9.37723C10.0823 9.26592 10.2332 9.20331 10.3906 9.20312H14.25C14.4074 9.20331 14.5583 9.26592 14.6696 9.37723C14.781 9.48854 14.8436 9.63946 14.8438 9.79688V10.0938ZM3.7005 13.9531H3.61608L3.81399 12.7656H4.49216L3.7005 13.9531ZM15.2995 13.9531L14.5078 12.7656H15.186L15.3839 13.9531H15.2995ZM17.8125 7.56239C17.8125 7.636 17.8013 7.70918 17.7794 7.77943L16.602 11.5469C16.546 11.7284 16.4331 11.8871 16.2801 11.9996C16.127 12.1121 15.9419 12.1725 15.752 12.1719H3.24803C3.05809 12.1725 2.87297 12.1121 2.71994 11.9996C2.5669 11.8871 2.45404 11.7284 2.39796 11.5469L1.22062 7.77943C1.19866 7.70918 1.18749 7.636 1.1875 7.56239V7.5558C1.1875 7.38156 1.25002 7.2131 1.3637 7.08105C1.47738 6.949 1.63466 6.86213 1.80697 6.83622C1.97927 6.8103 2.15515 6.84708 2.30263 6.93986C2.45012 7.03263 2.55942 7.17525 2.61067 7.34179L3.57564 10.4779C3.5943 10.5386 3.63193 10.5917 3.683 10.6294C3.73407 10.6671 3.79589 10.6875 3.85938 10.6875H15.1406C15.2041 10.6875 15.2659 10.6671 15.317 10.6294C15.3681 10.5917 15.4057 10.5386 15.4244 10.4779L16.3893 7.34179C16.4406 7.17525 16.5499 7.03263 16.6974 6.93986C16.8449 6.84708 17.0207 6.8103 17.193 6.83622C17.3653 6.86213 17.5226 6.949 17.6363 7.08105C17.75 7.2131 17.8125 7.38156 17.8125 7.5558V7.56239Z" fill="#92A5D1"/>
<path d="M5.64062 6.53125H5.04688V7.125H5.64062V6.53125Z" fill="#92A5D1"/>
<path d="M7.71875 6.53125H7.125V7.125H7.71875V6.53125Z" fill="#92A5D1"/>
<path d="M9.79688 6.53125H9.20312V7.125H9.79688V6.53125Z" fill="#92A5D1"/>
<path d="M11.875 6.53125H11.2812V7.125H11.875V6.53125Z" fill="#92A5D1"/>
<path d="M13.9531 6.53125H13.3594V7.125H13.9531V6.53125Z" fill="#92A5D1"/>
</svg>
