<svg width="13" height="14" viewBox="0 0 13 14" fill="none" xmlns="http://www.w3.org/2000/svg">
<path d="M12.6345 1.90037H8.70147V1.22042C8.70147 0.540473 8.16198 0 7.48327 0H5.3253C4.64659 0 4.1071 0.540473 4.1071 1.22042V1.90037H0.348059C0.156627 1.90037 0 2.05729 0 2.24907C0 2.44085 0.156627 2.59776 0.348059 2.59776H1.21821L1.98394 12.7098C2.03614 13.4247 2.64525 14 3.37617 14H9.4498C10.1807 14 10.7898 13.4421 10.842 12.7098L11.6078 2.59776H12.6519C12.8434 2.59776 13 2.44085 13 2.24907C13 2.05729 12.826 1.90037 12.6345 1.90037ZM4.80321 1.22042C4.80321 0.924035 5.02945 0.697385 5.3253 0.697385H7.50067C7.79652 0.697385 8.02276 0.924035 8.02276 1.22042V1.90037H4.80321V1.22042ZM10.1285 12.6401C10.0937 13.0062 9.79786 13.2852 9.4324 13.2852H3.37617C3.01071 13.2852 2.71486 13.0062 2.68005 12.6401L1.91432 2.58032H4.1071H4.80321H8.02276H8.71888H10.9116L10.1285 12.6401Z" fill="#EF7373"/>
<path d="M6.40421 4.39355C6.21278 4.39355 6.05615 4.55047 6.05615 4.74225V11.1756C6.05615 11.3674 6.21278 11.5243 6.40421 11.5243C6.59565 11.5243 6.75227 11.3674 6.75227 11.1756V4.74225C6.75227 4.55047 6.59565 4.39355 6.40421 4.39355Z" fill="#EF7373"/>
<path d="M8.31862 4.72481L7.97056 11.1582C7.95316 11.35 8.10979 11.5069 8.30122 11.5243H8.31862C8.51005 11.5243 8.64928 11.3848 8.66668 11.1931L9.01474 4.75968C9.03214 4.5679 8.87551 4.41099 8.68408 4.39355C8.49265 4.39355 8.33602 4.53303 8.31862 4.72481Z" fill="#EF7373"/>
<path d="M4.1246 4.39355C3.93317 4.41099 3.79395 4.5679 3.79395 4.75968L4.142 11.1931C4.15941 11.3848 4.29863 11.5243 4.49006 11.5243H4.50747C4.6989 11.5069 4.83812 11.35 4.83812 11.1582L4.49006 4.72481C4.47266 4.53303 4.31603 4.39355 4.1246 4.39355Z" fill="#EF7373"/>
</svg>
