<svg id="Capa_1" enable-background="new 0 0 512 512" height="512" viewBox="0 0 512 512" width="512" xmlns="http://www.w3.org/2000/svg"><g><path d="m307.597 200.479c24.254-16.899 38.733-44.616 38.733-74.144 0-49.808-40.521-90.33-90.33-90.33-37.649 0-71.706 23.715-84.745 59.011-1.436 3.886.551 8.199 4.437 9.634 3.882 1.438 8.199-.551 9.634-4.436 10.872-29.433 39.275-49.209 70.674-49.209 41.537 0 75.33 33.793 75.33 75.33 0 19.881-7.876 38.775-21.558 52.738-2.076-10.57-7.228-20.289-15.016-28.077-4.138-4.133-8.826-7.511-13.888-10.093 8.511-7.124 13.936-17.819 13.936-29.76 0-21.396-17.407-38.804-38.804-38.804s-38.804 17.408-38.804 38.804c0 11.954 5.437 22.66 13.964 29.784-14.731 7.523-25.63 21.505-28.924 38.197-12.923-13.087-20.597-30.401-21.475-49.179-.194-4.137-3.719-7.349-7.843-7.141-4.138.193-7.335 3.705-7.142 7.842 1.319 28.202 15.398 53.656 38.62 69.83 13.12 9.158 28.237 14.574 44.103 15.875v45.845h-174.929c-4.143 0-7.5 3.358-7.5 7.5v59.53c-37.057 3.769-66.07 35.159-66.07 73.199 0 40.567 33.004 73.57 73.57 73.57 16.715 0 33.08-5.758 46.079-16.213 12.8-10.295 21.887-24.731 25.586-40.649.938-4.035-1.573-8.065-5.608-9.003s-8.064 1.573-9.003 5.607c-2.292 9.862-6.954 18.619-13.301 25.743-2.006-7.672-6.011-14.708-11.767-20.463-2.884-2.881-6.094-5.315-9.538-7.289 6.169-5.914 10.021-14.226 10.021-23.426 0-17.904-14.565-32.469-32.469-32.469s-32.47 14.565-32.47 32.469c0 9.211 3.862 17.532 10.043 23.447-10.347 5.933-18.139 15.829-21.281 27.61-9.234-10.357-14.862-23.998-14.862-38.934 0-32.301 26.274-58.58 58.57-58.58 26.235 0 49.445 17.642 56.442 42.902 1.105 3.991 5.233 6.331 9.229 5.226 3.992-1.106 6.332-5.238 5.226-9.23-8.115-29.302-33.597-50.429-63.397-53.498v-52.051h167.43v52.034c-37.058 3.769-66.071 35.156-66.071 73.191 0 40.567 33.004 73.571 73.571 73.571s73.571-33.004 73.571-73.571c0-38.035-29.013-69.422-66.071-73.191v-52.034h72.38c4.143 0 7.5-3.358 7.5-7.5s-3.357-7.5-7.5-7.5h-72.38v-45.844c15.865-1.301 30.982-6.716 44.097-15.871zm-264.249 252.097c.23-16.471 13.696-29.801 30.224-29.801 8.074 0 15.669 3.145 21.382 8.853 5.631 5.631 8.76 13.096 8.844 21.05-8.867 5.314-19.228 8.318-30.227 8.318-11.051-.001-21.394-3.08-30.223-8.42zm30.223-79.743c9.632 0 17.469 7.836 17.469 17.469s-7.837 17.469-17.469 17.469c-9.633 0-17.47-7.836-17.47-17.469s7.837-17.469 17.47-17.469zm152.207 79.739c.231-16.469 13.696-29.798 30.222-29.798 8.074 0 15.669 3.145 21.382 8.852 5.606 5.606 8.731 13.03 8.841 20.945-8.829 5.341-19.173 8.419-30.223 8.419-11.05.001-21.393-3.077-30.222-8.418zm30.222-44.801c-9.633 0-17.47-7.836-17.47-17.469s7.837-17.469 17.47-17.469 17.47 7.836 17.47 17.469-7.837 17.469-17.47 17.469zm58.571-5.351c0 14.932-5.625 28.57-14.857 38.926-2.018-7.619-6.007-14.607-11.728-20.329-2.884-2.881-6.094-5.314-9.538-7.289 6.169-5.914 10.022-14.226 10.022-23.426 0-17.904-14.565-32.469-32.47-32.469s-32.47 14.565-32.47 32.469c0 9.211 3.862 17.532 10.044 23.447-10.346 5.933-18.137 15.827-21.28 27.607-9.237-10.357-14.866-23.999-14.866-38.936 0-32.296 26.275-58.571 58.571-58.571s58.572 26.275 58.572 58.571zm-58.571-315.081c13.125 0 23.804 10.679 23.804 23.804s-10.679 23.805-23.804 23.805-23.804-10.679-23.804-23.804 10.679-23.805 23.804-23.805zm0 62.612c10.63 0 20.629 4.14 28.151 11.655 7.517 7.516 11.655 17.511 11.655 28.143 0 .175.014.346.026.518-11.926 7.462-25.614 11.398-39.833 11.398-14.216 0-27.902-3.935-39.833-11.399.012-.172.026-.343.026-.517.001-21.945 17.859-39.798 39.808-39.798z"/><path d="m445.93 329.229v-59.534c0-4.142-3.357-7.5-7.5-7.5h-69.86c-4.143 0-7.5 3.358-7.5 7.5s3.357 7.5 7.5 7.5h62.359v52.034c-37.057 3.769-66.071 35.156-66.071 73.191 0 40.567 33.004 73.571 73.57 73.571 40.567 0 73.571-33.004 73.571-73.571.001-38.035-29.012-69.421-66.069-73.191zm-37.724 123.343c.232-16.469 13.696-29.797 30.222-29.797 8.074 0 15.669 3.145 21.382 8.852 5.607 5.607 8.732 13.031 8.842 20.945-8.829 5.341-19.173 8.42-30.224 8.42-11.049-.001-21.393-3.08-30.222-8.42zm30.223-44.801c-9.632 0-17.469-7.836-17.469-17.469s7.837-17.469 17.469-17.469c9.633 0 17.47 7.836 17.47 17.469s-7.837 17.469-17.47 17.469zm43.715 33.574c-2.018-7.618-6.007-14.606-11.729-20.328-2.884-2.881-6.094-5.314-9.538-7.289 6.169-5.914 10.022-14.226 10.022-23.426 0-17.904-14.565-32.469-32.47-32.469-17.903 0-32.469 14.565-32.469 32.469 0 9.211 3.862 17.532 10.043 23.447-10.346 5.933-18.137 15.827-21.28 27.607-9.237-10.357-14.865-23.999-14.865-38.936 0-32.296 26.274-58.571 58.57-58.571s58.572 26.275 58.572 58.571c0 14.932-5.625 28.569-14.856 38.925z"/></g></svg>