<svg height="512pt" viewBox="0 0 512.00108 512" width="512pt" xmlns="http://www.w3.org/2000/svg">
  <path d="m511.164062 218.273438-61-204c-2.535156-8.472657-10.324218-14.273438-19.164062-14.273438h-345c-8.683594 0-16.375 5.605469-19.039062 13.871094l-66 205c-1.957032 6.085937-.8906255 12.738281 2.875 17.90625 3.765624 5.167968 9.773437 8.222656 16.164062 8.222656h15v187c0 44.113281 35.886719 80 80 80h100c11.046875 0 20-8.953125 20-20v-87h42v87c0 11.046875 8.953125 20 20 20h100c44.113281 0 80-35.886719 80-80 0-11.046875-8.953125-20-20-20s-20 8.953125-20 20c0 22.054688-17.945312 40-40 40h-80v-87c0-11.046875-8.953125-20-20-20h-82c-11.046875 0-20 8.953125-20 20v87h-80c-22.054688 0-40-17.945312-40-40v-187h65c5.59375 0 10.933594-2.34375 14.71875-6.457031l101.296875-110.109375 100.28125 108.777344c3.773437 4.09375 9.078125 6.429687 14.648437 6.445312l66.054688.1875v88.15625c0 11.046875 8.953125 20 20 20s20-8.953125 20-20v-88.042969l14.945312.042969h.054688c6.308594 0 12.25-2.976562 16.023438-8.03125 3.789062-5.070312 4.953124-11.632812 3.140624-17.695312zm-239.453124-131.828126c-3.785157-4.109374-9.117188-6.445312-14.703126-6.445312h-2.007812c-5.59375 0-10.929688 2.34375-14.71875 6.460938l-109.058594 118.539062h-83.769531l53.121094-165h315.53125l49.019531 163.921875-85.335938-.242187zm-16.710938 110.554688c11.046875 0 20 8.953125 20 20s-8.953125 20-20 20-20-8.953125-20-20 8.953125-20 20-20zm-100 178v20c0 5.523438-4.476562 10-10 10h-20c-5.523438 0-10-4.476562-10-10v-20c0-5.523438 4.476562-10 10-10h20c5.523438 0 10 4.476562 10 10zm0-60c0 5.523438-4.476562 10-10 10h-20c-5.523438 0-10-4.476562-10-10v-20c0-5.523438 4.476562-10 10-10h20c5.523438 0 10 4.476562 10 10zm70-30c5.523438 0 10 4.476562 10 10v20c0 5.523438-4.476562 10-10 10h-20c-5.523438 0-10-4.476562-10-10v-20c0-5.523438 4.476562-10 10-10zm171 90v20c0 5.523438-4.476562 10-10 10h-20c-5.523438 0-10-4.476562-10-10v-20c0-5.523438 4.476562-10 10-10h20c5.523438 0 10 4.476562 10 10zm-90-90c5.523438 0 10 4.476562 10 10v20c0 5.523438-4.476562 10-10 10h-20c-5.523438 0-10-4.476562-10-10v-20c0-5.523438 4.476562-10 10-10zm90 30c0 5.523438-4.476562 10-10 10h-20c-5.523438 0-10-4.476562-10-10v-20c0-5.523438 4.476562-10 10-10h20c5.523438 0 10 4.476562 10 10zm0 0" fill="#94a5cd"/>
</svg>
