<?xml version="1.0" encoding="utf-8"?>
<svg xmlns="http://www.w3.org/2000/svg" height="128" width="128" viewBox="0 0 128 128">
  <g>
    <path id="path1" transform="rotate(0,64,64) translate(5.3464034418786,5) scale(3.66573485660518,3.66573485660518)  " fill="#92A5D1" d="M19.249341,8.8055813L8.7684207,19.352768 9.2288508,19.887239C11.503907,22.560051,13.360223,25.226978,16.215853,29.606016L17.748862,28.063396 13.731004,24.020002 14.440004,23.315001 18.453667,27.354174 20.108969,25.688494 16.090999,21.645003 16.8,20.940004 20.813774,24.979271 22.470068,23.312593 18.452005,19.269007 19.161005,18.564008 23.174869,22.603373 24.830665,20.937197 20.813,16.893997 21.522,16.188996 25.535469,20.227974 27.191263,18.5618 23.173002,14.518001 23.882001,13.813 27.896066,17.852577 29.433889,16.305115C25.56372,13.737936,22.901376,11.924357,19.573092,9.0833683z M15.266593,6.7949983C14.048553,6.794998,12.903516,7.2729983,12.041489,8.1399989L8.1073624,12.099001C6.6154397,13.599596,6.3717307,15.887573,7.3753266,17.646483L7.4758306,17.814152 17.715187,7.5106986 17.578355,7.4261627C16.885004,7.0147247,16.091619,6.794998,15.266593,6.7949983z M1.4190006,0L9.3646104,7.9961039 10.622443,6.7299975C11.862483,5.4829971 13.511536,4.7949966 15.266593,4.7949967 16.91102,4.7949966 18.463159,5.3996845 19.673339,6.5027671L19.896704,6.7165616 20.235405,7.0131741C24.072914,10.354743 26.923191,12.24307 31.551891,15.310111 31.801891,15.475119 31.964893,15.745106 31.995891,16.042116 32.02589,16.340102 31.922893,16.637097 31.711895,16.850109L16.761853,31.895C16.572856,32.083996 16.317851,32.189997 16.052851,32.189997 16.017855,32.189997 15.983851,32.187998 15.948854,32.184992 15.648851,32.152994 15.377854,31.988003 15.213852,31.733992 11.559844,26.100044 9.5628369,23.222057 6.6528257,19.980076L6.6489466,19.975312 6.4562639,19.771256C4.1357303,17.18508,4.2130814,13.180658,6.6883169,10.690001L7.9547178,9.4152701 0,1.4100008z" />
  </g>
</svg>

