<svg height="512pt" viewBox="0 0 512 512.00001" width="512pt" xmlns="http://www.w3.org/2000/svg">
  <path d="m506.078125 254.195312c-3.898437 3.875-9 5.8125-14.09375 5.8125-5.140625 0-10.277344-1.96875-14.1875-5.902343l-15.8125-15.917969v77.820312c0 11.042969-8.953125 19.996094-20 19.996094h-27.996094c-11.046875 0-20-8.953125-20-19.996094 0-11.046874 8.953125-20 20-20h8v-98.082031l-152.105469-153.105469c-7.464843-6.394531-18.453124-6.417968-25.945312-.054687l-153.96875 153.667969c.003906.191406.027344.382812.027344.578125v96.996093h9c11.046875 0 20 8.953126 20 20 0 11.042969-8.953125 19.996094-20 19.996094h-28.996094c-11.046875 0-20-8.953125-20-19.996094v-77.683593l-15.871094 15.839843c-7.820312 7.800782-20.480468 7.792969-28.285156-.027343-7.800781-7.816407-7.789062-20.480469.027344-28.285157l210.285156-209.867187c.269531-.269531.542969-.527344.828125-.78125 22.839844-20.335937 57.226563-20.261719 79.980469.167969.28125.253906.558594.515625.824218.785156l208.382813 209.757812c7.785156 7.835938 7.742187 20.496094-.09375 28.28125zm-64.09375 121.808594c-11.042969 0-19.996094 8.953125-19.996094 20v75.996094h-8c-11.046875 0-20 8.953125-20 20s8.953125 20 20 20h27.996094c11.046875 0 20-8.953125 20-20v-95.996094c0-11.046875-8.953125-20-20-20zm-342.988281 95.996094h-9v-75.996094c0-11.046875-8.953125-20-19.996094-20-11.046875 0-20 8.953125-20 20v95.996094c0 11.046875 8.953125 20 20 20h28.996094c11.046875 0 20-8.953125 20-20s-8.953125-20-20-20zm156.996094 0c-11.046876 0-20 8.953125-20 20s8.953124 20 20 20c11.046874 0 20-8.953125 20-20s-8.953126-20-20-20zm77.996093 0c-11.042969 0-20 8.953125-20 20s8.957031 20 20 20c11.046875 0 20-8.953125 20-20s-8.953125-20-20-20zm-155.992187 0c-11.046875 0-20 8.953125-20 20s8.953125 20 20 20c11.042968 0 19.996094-8.953125 19.996094-20s-8.953126-20-19.996094-20zm77.996094-175.992188c-11.046876 0-20 8.953126-20 20 0 11.042969 8.953124 19.996094 20 19.996094 11.046874 0 20-8.953125 20-19.996094 0-11.046874-8.953126-20-20-20zm77.996093 0c-11.042969 0-20 8.953126-20 20 0 11.042969 8.957031 19.996094 20 19.996094 11.046875 0 20-8.953125 20-19.996094 0-11.046874-8.953125-20-20-20zm-155.992187 0c-11.046875 0-20 8.953126-20 20 0 11.042969 8.953125 19.996094 20 19.996094 11.042968 0 19.996094-8.953125 19.996094-19.996094 0-11.046874-8.953126-20-19.996094-20zm0 0" fill="#94a5cd"/>
</svg>
