<?xml version="1.0" encoding="iso-8859-1"?>
<!-- Generator: Adobe Illustrator 19.0.0, SVG Export Plug-In . SVG Version: 6.00 Build 0)  -->
<svg version="1.1" id="Capa_1" xmlns="http://www.w3.org/2000/svg" xmlns:xlink="http://www.w3.org/1999/xlink" x="0px" y="0px"
	 viewBox="0 0 471.666 471.666" style="enable-background:new 0 0 471.666 471.666;" xml:space="preserve">
<g>
	<path d="M315.833,199.666h-80c-22.056,0-40-17.944-40-40c0-0.406-0.031-0.806-0.091-1.195v-38.38
		c0-22.106,17.985-40.091,40.091-40.091s40.091,17.984,40.091,40.091c0,22.056,17.944,39.999,40,39.999s40-17.943,40-39.999
		C355.924,53.872,302.051,0,235.833,0S115.742,53.872,115.742,120.091v311.575c0,22.056,17.944,40,40,40h160.182
		c22.056,0,40-17.944,40-40v-191c0-0.412-0.031-0.817-0.091-1.213C355.717,217.495,337.818,199.666,315.833,199.666z
		 M339.924,431.666c0,13.233-10.767,24-24,24H155.742c-13.233,0-24-10.767-24-24V120.091C131.742,62.695,178.437,16,235.833,16
		s104.091,46.695,104.091,104.091c0,13.233-10.767,23.999-24,23.999c-13.234,0-24-10.766-24-23.999
		c0-30.929-25.162-56.091-56.091-56.091s-56.091,25.162-56.091,56.091v39.575c0,0.438,0.036,0.868,0.105,1.286
		c0.686,30.287,25.537,54.714,55.985,54.714h80c13.233,0,24,10.767,24,24c0,0.411,0.031,0.815,0.091,1.21V431.666z"/>
	<path d="M287.94,293.342c-3.496,2.702-4.139,7.727-1.437,11.223c8.72,11.282,13.33,24.803,13.33,39.102c0,35.29-28.71,64-64,64
		s-64-28.71-64-64s28.71-64,64-64c9.994,0,19.563,2.237,28.442,6.649c3.957,1.967,8.757,0.354,10.724-3.604
		c1.966-3.957,0.353-8.759-3.604-10.725c-11.11-5.521-23.076-8.321-35.563-8.321c-44.112,0-80,35.888-80,80s35.888,80,80,80
		s80-35.888,80-80c0-17.872-5.765-34.777-16.67-48.887C296.461,291.284,291.438,290.64,287.94,293.342z"/>
	<path d="M187.833,343.666c0,4.418,3.582,8,8,8h80c4.418,0,8-3.582,8-8s-3.582-8-8-8h-80
		C191.415,335.666,187.833,339.248,187.833,343.666z"/>
</g>
<g>
</g>
<g>
</g>
<g>
</g>
<g>
</g>
<g>
</g>
<g>
</g>
<g>
</g>
<g>
</g>
<g>
</g>
<g>
</g>
<g>
</g>
<g>
</g>
<g>
</g>
<g>
</g>
<g>
</g>
</svg>
