<?xml version="1.0" encoding="iso-8859-1"?>
<!-- Generator: Adobe Illustrator 19.0.0, SVG Export Plug-In . SVG Version: 6.00 Build 0)  -->
<svg version="1.1" id="Capa_1" xmlns="http://www.w3.org/2000/svg" xmlns:xlink="http://www.w3.org/1999/xlink" x="0px" y="0px"
	 viewBox="0 0 512 512" style="enable-background:new 0 0 512 512;" xml:space="preserve">
<g>
	<g>
		<g>
			<path d="M283.371,485.184c-22.741,3.648-46.315,5.483-70.037,5.483c-113.152,0-192-39.36-192-74.667v-64.384
				c34.197,32.043,106.347,53.717,192,53.717c11.179,0,22.08-0.448,32.789-1.195c5.867-0.384,10.325-5.483,9.92-11.371
				c-0.405-5.867-5.504-10.347-11.371-9.92c-10.24,0.704-20.651,1.152-31.339,1.152c-113.152,0-192-39.36-192-74.667v-64.384
				c34.197,32.043,106.347,53.717,192,53.717c30.421,0,60.032-2.816,88.043-8.341c5.781-1.152,9.536-6.741,8.405-12.523
				c-1.152-5.803-6.784-9.621-12.544-8.405c-26.645,5.269-54.869,7.936-83.904,7.936c-113.152,0-192-39.36-192-74.667v-64.384
				C55.531,170.325,127.68,192,213.333,192s157.803-21.675,192-53.717v64.512c-0.064,14.421-12.715,26.581-23.36,34.219
				c-4.779,3.456-5.867,10.112-2.432,14.891c2.069,2.901,5.355,4.437,8.661,4.437c2.155,0,4.331-0.661,6.229-1.984
				c4.117-2.965,7.552-6.123,10.901-9.28v1.963c0,5.888,4.779,10.667,10.667,10.667c5.888,0,10.667-4.779,10.667-10.667v-44.224
				c0-0.043,0.021-0.085,0.021-0.128s-0.021-0.064-0.021-0.107V96c0-53.824-93.717-96-213.333-96S0,42.176,0,96v320
				c0,53.824,93.717,96,213.333,96c24.853,0,49.536-1.941,73.387-5.739c5.824-0.939,9.771-6.4,8.853-12.224
				C294.656,488.235,289.195,484.309,283.371,485.184z M213.333,21.333c113.152,0,192,39.36,192,74.667
				c0,35.307-78.848,74.667-192,74.667s-192-39.36-192-74.667C21.333,60.693,100.181,21.333,213.333,21.333z"/>
			<path d="M394.667,277.333c-64.704,0-117.333,52.651-117.333,117.333S329.963,512,394.667,512S512,459.349,512,394.667
				S459.371,277.333,394.667,277.333z M394.667,490.667c-52.928,0-96-43.072-96-96s43.072-96,96-96s96,43.072,96,96
				S447.595,490.667,394.667,490.667z"/>
			<path d="M429.76,408.469l-24.427,24.427V330.667c0-5.888-4.779-10.667-10.667-10.667S384,324.779,384,330.667v102.272
				l-24.469-24.469c-4.16-4.16-10.923-4.16-15.083,0c-4.16,4.16-4.16,10.923,0,15.083l42.667,42.667
				c0.363,0.341,0.811,0.491,1.195,0.789c0.725,0.555,1.429,1.152,2.283,1.493c1.301,0.555,2.688,0.832,4.075,0.832
				s2.773-0.277,4.075-0.832c1.323-0.555,2.517-1.365,3.52-2.368l42.581-42.581c4.16-4.16,4.16-10.923,0-15.083
				S433.92,404.309,429.76,408.469z"/>
		</g>
	</g>
</g>
<g>
</g>
<g>
</g>
<g>
</g>
<g>
</g>
<g>
</g>
<g>
</g>
<g>
</g>
<g>
</g>
<g>
</g>
<g>
</g>
<g>
</g>
<g>
</g>
<g>
</g>
<g>
</g>
<g>
</g>
</svg>
