<svg width="17" height="24" viewBox="0 0 17 24" fill="none" xmlns="http://www.w3.org/2000/svg">
<g clip-path="url(#clip0)">
<path fill-rule="evenodd" clip-rule="evenodd" d="M12.0794 1.47737H10.8762C10.3653 -0.492 6.58467 -0.492914 6.0742 1.47737H4.83791C4.18672 1.47737 3.65736 1.99029 3.65736 2.62023V3.172H1.88889C0.847167 3.172 0 3.99212 0 5.00057V17.3434C0 18.3519 0.847167 19.172 1.88889 19.172H15.1111C16.1528 19.172 17 18.3519 17 17.3434V5.00057C17 3.99212 16.1528 3.172 15.1111 3.172H13.26V2.62023C13.26 1.99029 12.7306 1.47737 12.0794 1.47737ZM15.1111 4.08629C15.632 4.08629 16.0556 4.49634 16.0556 5.00057V17.3434C16.0556 17.8477 15.632 18.2577 15.1111 18.2577H1.88889C1.36803 18.2577 0.944444 17.8477 0.944444 17.3434V5.00057C0.944444 4.49634 1.36803 4.08629 1.88889 4.08629H3.65736V4.31074C3.65736 4.94069 4.18672 5.4536 4.83791 5.4536H12.0794C12.7306 5.4536 13.26 4.94069 13.26 4.31074V4.08629H15.1111ZM5.45686 6.95125L3.90042 8.45799L3.27897 7.85594C3.09433 7.67719 2.79541 7.67719 2.61124 7.85548C2.42661 8.03422 2.42661 8.32359 2.61124 8.50234L3.56655 9.42759C3.61236 9.47193 3.66572 9.50531 3.72191 9.52771C3.77905 9.55011 3.83997 9.56153 3.90042 9.56153C4.0213 9.56153 4.14219 9.51673 4.23428 9.42759L6.12458 7.59765C6.30922 7.41891 6.30922 7.12999 6.12458 6.95125C5.93994 6.77251 5.64149 6.77251 5.45686 6.95125ZM8.02778 8.20057C8.02778 8.45292 8.23886 8.65772 8.5 8.65772H14.1667C14.4278 8.65772 14.6389 8.45292 14.6389 8.20057C14.6389 7.94823 14.4278 7.74343 14.1667 7.74343H8.5C8.23886 7.74343 8.02778 7.94823 8.02778 8.20057ZM5.45686 10.7637L3.90042 12.2705L3.27897 11.6684C3.09433 11.4897 2.79541 11.4897 2.61124 11.668C2.42661 11.8467 2.42661 12.1361 2.61124 12.3148L3.56655 13.2401L3.57222 13.2451L3.57647 13.2492C3.60622 13.2762 3.64164 13.2917 3.67611 13.31C3.69311 13.3196 3.70775 13.3338 3.72616 13.3411C3.76347 13.3553 3.80266 13.358 3.84186 13.3626C3.86169 13.3653 3.88058 13.3736 3.90042 13.3736C4.0213 13.3736 4.14219 13.3292 4.23428 13.2401L6.12458 11.4101C6.30922 11.2314 6.30922 10.9425 6.12458 10.7637C5.93994 10.585 5.64149 10.585 5.45686 10.7637ZM14.1667 11.4006H8.5C8.23886 11.4006 8.02778 11.6054 8.02778 11.8577C8.02778 12.1101 8.23886 12.3149 8.5 12.3149H14.1667C14.4278 12.3149 14.6389 12.1101 14.6389 11.8577C14.6389 11.6054 14.4278 11.4006 14.1667 11.4006ZM5.45686 14.576L3.90042 16.0828L3.27897 15.4807C3.09433 15.302 2.79541 15.3024 2.61124 15.4807C2.42661 15.659 2.42661 15.9484 2.61124 16.1271L3.56655 17.0524L3.57222 17.0578L3.57647 17.0615C3.60622 17.0889 3.64164 17.1045 3.67611 17.1228C3.69311 17.1319 3.70775 17.1465 3.72616 17.1534C3.76347 17.1676 3.80266 17.1708 3.84186 17.1753C3.86169 17.1776 3.88058 17.1863 3.90042 17.1863C4.0213 17.1863 4.14219 17.1415 4.23428 17.0524L6.12458 15.2224C6.30922 15.0437 6.30922 14.7548 6.12458 14.576C5.93994 14.3973 5.64149 14.3973 5.45686 14.576ZM14.1667 15.0577H8.5C8.23886 15.0577 8.02778 15.2625 8.02778 15.5149C8.02778 15.7672 8.23886 15.972 8.5 15.972H14.1667C14.4278 15.972 14.6389 15.7672 14.6389 15.5149C14.6389 15.2625 14.4278 15.0577 14.1667 15.0577ZM4.6018 2.62023C4.6018 2.49634 4.70994 2.39166 4.83791 2.39166H6.48975C6.75089 2.39166 6.96197 2.18686 6.96197 1.93451C6.96197 1.22 7.74634 0.894517 8.47497 0.894517C9.20409 0.894517 9.98844 1.22 9.98844 1.93451C9.98844 2.18686 10.2 2.39166 10.4607 2.39166H12.0794C12.2079 2.39166 12.3156 2.49634 12.3156 2.62023V3.4504C12.2915 3.50526 12.2778 3.5656 12.2778 3.62914C12.2778 3.69269 12.2915 3.75303 12.3156 3.80789V4.31074C12.3156 4.43463 12.2079 4.53931 12.0794 4.53931H4.83791C4.70994 4.53931 4.6018 4.43463 4.6018 4.31074V2.62023Z" fill="#92A5D1"/>
</g>
<defs>
<clipPath id="clip0">
<rect width="17" height="24" fill="white"/>
</clipPath>
</defs>
</svg>
