<svg id="Capa_1" enable-background="new 0 0 512 512" height="512" viewBox="0 0 512 512" width="512" xmlns="http://www.w3.org/2000/svg"><g><path d="m498.575 488.071c8.782-11.157 13.425-24.582 13.425-38.823 0-16.761-6.516-32.519-18.349-44.371-10.053-10.063-22.917-16.27-36.809-17.921v-7.916c0-16.46-13.374-29.852-29.813-29.852h-66.213v-29.808c0-.269-.016-.534-.043-.796 4.75-.326 9.4-1.165 13.876-2.523 9.735-2.954 18.659-8.283 26.062-15.692.881-.882 1.736-1.793 2.561-2.723.818-.922 1.606-1.865 2.359-2.822.002-.003.003-.006.005-.008 8.779-11.156 13.42-24.578 13.42-38.817 0-16.761-6.516-32.518-18.348-44.372-10.794-10.803-24.826-17.164-39.893-18.209v-7.627c0-16.461-13.374-29.853-29.813-29.853h-66.646v-29.808c0-.279-.018-.555-.048-.826 14.924-1.125 28.812-7.469 39.52-18.185 1.75-1.754 3.405-3.618 4.917-5.541.001-.002.002-.003.003-.005 8.783-11.159 13.425-24.583 13.425-38.824 0-16.761-6.516-32.518-18.349-44.372-11.843-11.849-27.578-18.377-44.307-18.377-16.74 0-32.478 6.528-44.309 18.38-11.838 11.848-18.357 27.606-18.357 44.372 0 14.249 4.648 27.678 13.438 38.83 9.865 12.534 23.796 20.646 39.208 23.113-.09.465-.141.945-.141 1.437v29.808h-67.069c-16.439 0-29.813 13.392-29.813 29.853v8.286c-12.877 2.091-24.748 8.132-34.149 17.549-11.839 11.848-18.358 27.606-18.358 44.372 0 14.249 4.648 27.677 13.438 38.83 9.776 12.421 23.543 20.508 38.79 23.054-.098.484-.15.984-.15 1.497v29.808h-67.066c-16.439 0-29.813 13.392-29.813 29.852v7.916c-13.899 1.65-26.764 7.858-36.81 17.921-11.836 11.847-18.356 27.604-18.356 44.37 0 14.25 4.648 27.679 13.438 38.829 2.243 2.851 4.697 5.473 7.33 7.853 11.412 10.314 26.2 16.07 41.897 16.07h.001c11.229 0 22.002-2.954 31.46-8.472 4.633-2.703 8.956-6.012 12.851-9.91 1.753-1.756 3.408-3.622 4.915-5.539 0-.001.001-.001.001-.002.001-.001.001-.002.002-.003 0-.001.001-.002.001-.002 8.783-11.158 13.425-24.582 13.425-38.823 0-4.142-3.357-7.5-7.5-7.5s-7.5 3.358-7.5 7.5c0 7.819-1.846 15.309-5.378 22.066-6.292-5.77-13.564-10.122-21.427-12.894 2.521-3.961 3.901-8.608 3.901-13.332 0-6.616-2.572-12.837-7.247-17.521-4.678-4.681-10.895-7.259-17.504-7.259-6.614 0-12.832 2.579-17.504 7.26-4.675 4.679-7.25 10.901-7.25 17.521 0 4.726 1.381 9.373 3.902 13.33-7.868 2.772-15.142 7.126-21.433 12.9-3.532-6.757-5.381-14.249-5.381-22.072 0-12.761 4.961-24.754 13.97-33.771 9.001-9.016 20.967-13.981 33.695-13.981 12.721 0 24.688 4.966 33.696 13.98 1.897 1.901 3.644 3.973 5.191 6.157 2.394 3.379 7.072 4.18 10.455 1.785 3.38-2.394 4.18-7.075 1.785-10.455-2.032-2.869-4.325-5.589-6.818-8.087-10.054-10.062-22.917-16.269-36.809-17.92v-7.917c0-8.189 6.646-14.852 14.813-14.852h163.953v22.768c-13.899 1.651-26.763 7.858-36.809 17.92-11.838 11.848-18.357 27.605-18.357 44.372 0 14.249 4.648 27.677 13.438 38.83 11.968 15.204 29.91 23.923 49.23 23.923 6.274 0 12.408-.918 18.249-2.691 9.736-2.954 18.659-8.283 26.062-15.692.904-.905 1.779-1.842 2.626-2.8.792-.896 1.56-1.811 2.292-2.741.001-.002.002-.003.003-.005 8.783-11.159 13.425-24.583 13.425-38.823 0-16.761-6.516-32.519-18.349-44.371-10.053-10.063-22.917-16.27-36.809-17.921v-22.768h163.097c8.168 0 14.813 6.663 14.813 14.852v7.916c-13.899 1.651-26.763 7.858-36.809 17.92-11.837 11.847-18.356 27.605-18.356 44.372 0 14.25 4.648 27.679 13.438 38.829 11.966 15.203 29.908 23.923 49.228 23.923 6.274 0 12.408-.918 18.249-2.691 9.736-2.954 18.659-8.283 26.062-15.692 1.754-1.757 3.409-3.623 4.916-5.539 0-.001.001-.001.001-.002.001-.001.001-.002.002-.003.001 0 .001-.001.002-.002zm-231.401-423.419c-.232.295-.489.584-.763.858-1.844 1.846-4.292 2.862-6.894 2.862-3.005 0-5.796-1.358-7.662-3.729-1.368-1.736-2.092-3.829-2.092-6.051 0-2.615 1.016-5.072 2.864-6.921 1.84-1.844 4.287-2.859 6.89-2.859 2.601 0 5.05 1.017 6.892 2.86 1.844 1.847 2.859 4.304 2.859 6.92.001 2.224-.722 4.318-2.094 6.06zm-7.657 18.721c12.52 0 24.312 4.811 33.268 13.558-8.959 8.752-20.745 13.573-33.268 13.573-12.595 0-24.413-4.888-33.27-13.571 8.949-8.748 20.74-13.56 33.27-13.56zm-33.696-54.393c9-9.016 20.966-13.98 33.695-13.98 12.721 0 24.688 4.966 33.695 13.98 9.003 9.019 13.962 21.013 13.962 33.771 0 7.82-1.847 15.31-5.378 22.067-6.293-5.771-13.564-10.123-21.428-12.895 2.521-3.962 3.901-8.608 3.901-13.332 0-6.618-2.572-12.84-7.247-17.521-4.678-4.681-10.895-7.259-17.504-7.259-6.614 0-12.832 2.579-17.503 7.259-4.676 4.679-7.251 10.901-7.251 17.521 0 4.724 1.38 9.371 3.902 13.329-7.868 2.772-15.142 7.126-21.432 12.9-3.534-6.754-5.383-14.246-5.383-22.069.001-12.76 4.962-24.753 13.971-33.771zm-163.155 440.889c12.521 0 24.31 4.81 33.267 13.558-8.959 8.752-20.745 13.573-33.268 13.573-12.595 0-24.413-4.888-33.27-13.571 8.95-8.749 20.741-13.56 33.271-13.56zm-6.889-31.702c1.84-1.844 4.287-2.859 6.89-2.859 2.601 0 5.05 1.017 6.891 2.859 1.845 1.849 2.86 4.307 2.86 6.922 0 2.224-.723 4.318-2.089 6.053-.237.3-.498.595-.768.865-1.845 1.846-4.294 2.863-6.895 2.863-3.004 0-5.796-1.358-7.664-3.732-1.367-1.734-2.09-3.826-2.09-6.049.001-2.616 1.017-5.073 2.865-6.922zm208.313 12.981c-.232.296-.49.586-.763.859-1.844 1.845-4.292 2.862-6.893 2.862-3.004 0-5.796-1.358-7.664-3.73-1.367-1.735-2.09-3.827-2.09-6.051 0-2.615 1.016-5.072 2.862-6.92 1.842-1.845 4.289-2.86 6.892-2.86 2.601 0 5.049 1.016 6.891 2.86 1.845 1.848 2.86 4.306 2.86 6.921.001 2.222-.722 4.316-2.095 6.059zm-7.657 18.721c12.522 0 24.312 4.81 33.268 13.558-8.959 8.752-20.746 13.573-33.268 13.573-12.595 0-24.413-4.888-33.27-13.571 8.949-8.749 20.741-13.56 33.27-13.56zm47.657-20.621c0 7.82-1.846 15.31-5.378 22.067-6.292-5.771-13.563-10.123-21.428-12.895 2.522-3.962 3.902-8.608 3.902-13.332 0-6.617-2.573-12.838-7.247-17.521-4.678-4.682-10.894-7.26-17.504-7.26-6.614 0-12.831 2.579-17.506 7.261-4.674 4.679-7.248 10.901-7.248 17.52 0 4.725 1.38 9.372 3.901 13.33-7.868 2.772-15.141 7.126-21.432 12.9-3.534-6.754-5.383-14.246-5.383-22.069 0-12.762 4.961-24.754 13.971-33.771 9.001-9.016 20.967-13.981 33.695-13.981 12.722 0 24.688 4.966 33.695 13.981 9.004 9.017 13.962 21.011 13.962 33.77zm59.973-191.355c-.238.302-.498.595-.768.865-1.845 1.846-4.294 2.863-6.895 2.863-3.004 0-5.796-1.358-7.663-3.73-1.368-1.735-2.091-3.828-2.091-6.05 0-2.615 1.016-5.072 2.864-6.922 1.84-1.844 4.287-2.859 6.89-2.859 2.602 0 5.05 1.017 6.891 2.859 1.845 1.848 2.86 4.306 2.86 6.921.001 2.224-.721 4.318-2.088 6.053zm-7.663 18.728c12.52 0 24.311 4.811 33.267 13.558-8.958 8.752-20.745 13.573-33.267 13.573-12.596 0-24.414-4.888-33.271-13.571 8.951-8.748 20.742-13.56 33.271-13.56zm-227.462-54.392c9-9.016 20.967-13.98 33.695-13.98 12.722 0 24.688 4.966 33.695 13.98 9.004 9.019 13.962 21.012 13.962 33.771 0 7.82-1.846 15.311-5.378 22.067-6.292-5.771-13.564-10.123-21.428-12.895 2.522-3.962 3.902-8.608 3.902-13.331 0-6.618-2.573-12.839-7.246-17.52-4.678-4.682-10.894-7.261-17.505-7.261-6.614 0-12.832 2.579-17.505 7.26-4.675 4.679-7.249 10.901-7.249 17.521 0 4.725 1.38 9.372 3.901 13.329-7.868 2.772-15.141 7.126-21.432 12.899-3.534-6.755-5.383-14.246-5.383-22.069 0-12.762 4.961-24.754 13.971-33.771zm41.352 35.671c-.233.297-.49.586-.763.859-1.844 1.846-4.292 2.862-6.893 2.862-3.004 0-5.796-1.358-7.664-3.73-1.367-1.734-2.09-3.827-2.09-6.05 0-2.615 1.016-5.073 2.862-6.921 1.841-1.844 4.289-2.86 6.892-2.86 2.602 0 5.049 1.016 6.891 2.86 1.845 1.847 2.86 4.305 2.86 6.92.001 2.223-.722 4.317-2.095 6.06zm-7.657 18.721c12.521 0 24.312 4.811 33.268 13.558-8.958 8.752-20.744 13.573-33.268 13.573-12.595 0-24.413-4.888-33.27-13.57 8.95-8.75 20.741-13.561 33.27-13.561zm4.369 41.963c4.751-.326 9.404-1.164 13.88-2.523 9.736-2.954 18.659-8.283 26.061-15.692 1.198-1.201 2.329-2.466 3.422-3.752.505-.594 1.02-1.183 1.497-1.79.001-.001.001-.002.002-.004 8.783-11.158 13.425-24.582 13.425-38.824 0-16.761-6.516-32.519-18.349-44.371-10.691-10.702-24.562-17.044-39.468-18.179v-7.658c0-8.19 6.646-14.853 14.813-14.853h148.716c8.168 0 14.813 6.663 14.813 14.853v8.358c-3.917.668-7.762 1.698-11.498 3.107-3.876 1.462-5.833 5.789-4.371 9.665 1.463 3.876 5.791 5.832 9.664 4.371 5.355-2.02 11.004-3.044 16.789-3.044 12.721 0 24.688 4.966 33.695 13.98 9.003 9.019 13.961 21.012 13.961 33.771 0 7.819-1.846 15.309-5.378 22.066-6.293-5.77-13.564-10.122-21.427-12.894 2.521-3.961 3.901-8.608 3.901-13.331 0-6.617-2.572-12.838-7.246-17.521-4.678-4.682-10.895-7.26-17.505-7.26-6.615 0-12.833 2.58-17.503 7.259-4.676 4.679-7.251 10.901-7.251 17.521 0 4.724 1.38 9.371 3.902 13.329-7.868 2.772-15.142 7.126-21.433 12.9-3.534-6.754-5.382-14.246-5.382-22.069 0-10.112 3.112-19.771 9-27.931 2.424-3.359 1.665-8.047-1.693-10.47-3.36-2.424-8.048-1.666-10.471 1.694-7.743 10.731-11.836 23.425-11.836 36.708 0 14.25 4.648 27.679 13.438 38.829 9.775 12.422 23.545 20.509 38.793 23.055-.098.484-.15.984-.15 1.496v29.808h-178.768v-29.808c0-.269-.016-.534-.043-.796zm248.645 96.893c9.001-9.016 20.967-13.981 33.695-13.981 12.722 0 24.688 4.966 33.695 13.981 9.004 9.019 13.962 21.012 13.962 33.771 0 7.82-1.846 15.31-5.378 22.067-6.292-5.771-13.563-10.123-21.428-12.895 2.522-3.962 3.902-8.608 3.902-13.332 0-6.617-2.573-12.838-7.247-17.521-4.678-4.682-10.894-7.26-17.504-7.26-6.614 0-12.831 2.579-17.506 7.261-4.674 4.679-7.248 10.901-7.248 17.52 0 4.725 1.38 9.372 3.901 13.33-7.868 2.772-15.141 7.126-21.432 12.899-3.534-6.754-5.382-14.246-5.382-22.069.001-12.762 4.961-24.755 13.97-33.771zm41.353 35.671c-.232.296-.49.586-.763.859-1.844 1.845-4.292 2.862-6.893 2.862-3.004 0-5.796-1.358-7.664-3.73-1.367-1.735-2.09-3.827-2.09-6.051 0-2.615 1.016-5.072 2.862-6.92 1.842-1.845 4.289-2.86 6.892-2.86 2.601 0 5.049 1.016 6.891 2.86 1.845 1.848 2.86 4.306 2.86 6.921.001 2.222-.722 4.316-2.095 6.059zm-7.657 18.721c12.522 0 24.312 4.81 33.268 13.558-8.959 8.752-20.746 13.573-33.268 13.573-12.595 0-24.413-4.888-33.27-13.571 8.95-8.749 20.741-13.56 33.27-13.56z"/></g></svg>