<svg width="20" height="20" viewBox="0 0 20 20" fill="none" xmlns="http://www.w3.org/2000/svg">
<path d="M18.8626 7.45398C18.1898 5.10734 16.5715 3.0864 14.4229 1.90937C14.2336 1.80586 13.9963 1.87511 13.8926 2.06429C13.789 2.25347 13.8583 2.4909 14.0475 2.59457C16.0145 3.67211 17.4958 5.52179 18.1117 7.66929C18.1608 7.84074 18.3171 7.95238 18.4869 7.95238C18.5226 7.95238 18.5589 7.94746 18.5948 7.93711C18.8022 7.87769 18.9221 7.66133 18.8626 7.45398Z" fill="#92A5D1"/>
<path d="M12.863 1.23446L12.8456 1.22876C12.6401 1.16282 12.4201 1.27587 12.3542 1.48126C12.2883 1.68665 12.4013 1.90661 12.6067 1.97263L12.6207 1.97716C12.661 1.99028 12.7018 1.99653 12.7419 1.99653C12.9064 1.99653 13.0595 1.89177 13.1132 1.72692C13.1801 1.52181 13.0681 1.3013 12.863 1.23446Z" fill="#92A5D1"/>
<path d="M1.78772 6.73074C1.58382 6.65992 1.36132 6.76766 1.2905 6.97141C1.21479 7.18918 1.14651 7.41239 1.08768 7.63481C1.03249 7.84332 1.15679 8.05715 1.36534 8.11235C1.39882 8.12125 1.43245 8.12547 1.46554 8.12547C1.63847 8.12547 1.79659 8.00973 1.84288 7.83469C1.89675 7.63129 1.95917 7.42711 2.02839 7.22797C2.09921 7.02418 1.99151 6.80156 1.78772 6.73074Z" fill="#92A5D1"/>
<path d="M3.12705 4.44563C2.95365 4.31743 2.709 4.35411 2.5808 4.52774C2.44389 4.71301 2.31244 4.90567 2.19006 5.10036C2.07522 5.28297 2.13018 5.52411 2.31283 5.63895C2.3774 5.67958 2.44932 5.69891 2.52037 5.69891C2.65022 5.69891 2.77725 5.63422 2.85147 5.51614C2.9635 5.3379 3.08385 5.16157 3.20916 4.99188C3.33736 4.8184 3.30061 4.57379 3.12705 4.44563Z" fill="#92A5D1"/>
<path d="M7.47688 1.52841C7.40625 1.32458 7.18372 1.21662 6.97985 1.28728C6.76231 1.36271 6.54497 1.44736 6.33391 1.53892C6.13598 1.62478 6.04512 1.85482 6.13102 2.05271C6.19489 2.20005 6.3386 2.28806 6.48954 2.28806C6.54141 2.28806 6.59418 2.27763 6.64481 2.25568C6.83789 2.17189 7.03672 2.09447 7.23575 2.02544C7.43957 1.95478 7.54754 1.73224 7.47688 1.52841Z" fill="#92A5D1"/>
<path d="M5.08145 2.65794C4.95345 2.48426 4.70891 2.44719 4.53524 2.57528C4.35009 2.7118 4.1677 2.85708 3.99317 3.00712C3.82958 3.14774 3.81094 3.39438 3.95161 3.55798C4.02883 3.64778 4.13809 3.69391 4.24798 3.69391C4.33813 3.69391 4.42872 3.66286 4.50243 3.5995C4.66223 3.46212 4.82923 3.32911 4.9988 3.20415C5.17243 3.07614 5.20946 2.83161 5.08145 2.65794Z" fill="#92A5D1"/>
<path d="M1.17188 8.82812C0.525703 8.82812 0 9.35383 0 10C0 10.6462 0.525703 11.1719 1.17188 11.1719C1.81805 11.1719 2.34375 10.6462 2.34375 10C2.34375 9.35383 1.81805 8.82812 1.17188 8.82812ZM1.17188 10.3906C0.956484 10.3906 0.78125 10.2154 0.78125 10C0.78125 9.78461 0.956484 9.60938 1.17188 9.60938C1.38727 9.60938 1.5625 9.78461 1.5625 10C1.5625 10.2154 1.38727 10.3906 1.17188 10.3906Z" fill="#92A5D1"/>
<path d="M18.8281 8.82812C18.182 8.82812 17.6562 9.35383 17.6562 10C17.6562 10.6462 18.182 11.1719 18.8281 11.1719C19.4743 11.1719 20 10.6462 20 10C20 9.35383 19.4743 8.82812 18.8281 8.82812ZM18.8281 10.3906C18.6127 10.3906 18.4375 10.2154 18.4375 10C18.4375 9.78461 18.6127 9.60938 18.8281 9.60938C19.0435 9.60938 19.2188 9.78461 19.2188 10C19.2188 10.2154 19.0435 10.3906 18.8281 10.3906Z" fill="#92A5D1"/>
<path d="M10 0C9.35383 0 8.82812 0.525703 8.82812 1.17188C8.82812 1.81805 9.35383 2.34375 10 2.34375C10.6462 2.34375 11.1719 1.81805 11.1719 1.17188C11.1719 0.525703 10.6462 0 10 0ZM10 1.5625C9.78461 1.5625 9.60938 1.38727 9.60938 1.17188C9.60938 0.956484 9.78461 0.78125 10 0.78125C10.2154 0.78125 10.3906 0.956484 10.3906 1.17188C10.3906 1.38727 10.2154 1.5625 10 1.5625Z" fill="#92A5D1"/>
<path d="M6.00046 17.4318C4.00863 16.3574 2.50984 14.4982 1.88832 12.3309C1.8289 12.1236 1.61265 12.0035 1.40515 12.0632C1.19777 12.1226 1.07789 12.3389 1.13738 12.5463C1.81644 14.9145 3.45382 16.9458 5.62961 18.1194C5.68859 18.1512 5.75211 18.1663 5.81468 18.1663C5.95367 18.1663 6.08824 18.092 6.15886 17.961C6.26125 17.7712 6.19039 17.5342 6.00046 17.4318Z" fill="#92A5D1"/>
<path d="M7.39483 18.0274L7.38369 18.0237C7.17818 17.9577 6.95822 18.0706 6.89217 18.2759C6.82611 18.4813 6.93896 18.7014 7.14435 18.7675L7.15299 18.7702C7.19314 18.7833 7.23389 18.7895 7.274 18.7895C7.43858 18.7895 7.59166 18.6846 7.64537 18.5197C7.71213 18.3146 7.59998 18.0942 7.39483 18.0274Z" fill="#92A5D1"/>
<path d="M13.869 17.9473C13.7831 17.7494 13.5531 17.6584 13.3553 17.7443C13.1622 17.8281 12.9633 17.9055 12.7643 17.9745C12.5605 18.0452 12.4525 18.2677 12.5232 18.4716C12.5792 18.633 12.7304 18.7344 12.8922 18.7344C12.9347 18.7344 12.9778 18.7274 13.0202 18.7127C13.2377 18.6373 13.4551 18.5526 13.6661 18.4611C13.864 18.3752 13.9549 18.1452 13.869 17.9473Z" fill="#92A5D1"/>
<path d="M17.6872 14.3618C17.5045 14.2469 17.2633 14.3019 17.1486 14.4846C17.0366 14.6628 16.9162 14.8391 16.7909 15.0088C16.6627 15.1823 16.6994 15.4269 16.873 15.5551C16.9428 15.6067 17.0241 15.6316 17.1048 15.6316C17.2245 15.6316 17.3427 15.5767 17.4193 15.473C17.5562 15.2877 17.6877 15.095 17.81 14.9004C17.9248 14.7177 17.8698 14.4766 17.6872 14.3618Z" fill="#92A5D1"/>
<path d="M16.0484 16.4426C15.9078 16.279 15.6611 16.2605 15.4975 16.401C15.3377 16.5384 15.1707 16.6714 15.0012 16.7964C14.8275 16.9244 14.7905 17.1689 14.9185 17.3426C14.9951 17.4465 15.1133 17.5015 15.2333 17.5015C15.3138 17.5015 15.395 17.4767 15.4647 17.4253C15.6499 17.2887 15.8323 17.1435 16.0068 16.9934C16.1704 16.8528 16.189 16.6062 16.0484 16.4426Z" fill="#92A5D1"/>
<path d="M18.6347 11.8881C18.4262 11.8328 18.2123 11.9572 18.1571 12.1658C18.1032 12.3692 18.0408 12.5734 17.9716 12.7725C17.9008 12.9763 18.0085 13.1989 18.2123 13.2697C18.2548 13.2845 18.298 13.2915 18.3405 13.2915C18.5022 13.2915 18.6534 13.1904 18.7095 13.0291C18.7852 12.8113 18.8535 12.5881 18.9123 12.3657C18.9675 12.1572 18.8432 11.9433 18.6347 11.8881Z" fill="#92A5D1"/>
<path d="M10 17.6562C9.35383 17.6562 8.82812 18.182 8.82812 18.8281C8.82812 19.4743 9.35383 20 10 20C10.6462 20 11.1719 19.4743 11.1719 18.8281C11.1719 18.182 10.6462 17.6562 10 17.6562ZM10 19.2188C9.78461 19.2188 9.60938 19.0435 9.60938 18.8281C9.60938 18.6127 9.78461 18.4375 10 18.4375C10.2154 18.4375 10.3906 18.6127 10.3906 18.8281C10.3906 19.0435 10.2154 19.2188 10 19.2188Z" fill="#92A5D1"/>
<path d="M11.8975 9.60953H11.7367C12.1026 9.19852 12.3255 8.65754 12.3255 8.06527V7.24344V6.8632V6.77766C12.3255 5.49535 11.2823 4.45215 9.99998 4.45215C8.71767 4.45215 7.67447 5.49535 7.67447 6.77766V6.8632V7.24344V8.06527C7.67447 8.65754 7.89736 9.19852 8.26322 9.60953H8.10248C6.50857 9.60953 5.21185 10.9062 5.21185 12.5002V14.4521C5.21185 14.6678 5.38677 14.8427 5.60248 14.8427H14.3975C14.6132 14.8427 14.7881 14.6678 14.7881 14.4521V12.5002C14.7881 10.9062 13.4914 9.60953 11.8975 9.60953ZM9.99998 5.23336C10.7745 5.23336 11.4178 5.80664 11.5277 6.55113L10.8384 6.14617C10.6739 6.04949 10.4636 6.08586 10.3411 6.23207C10.0106 6.62656 9.52584 6.85281 9.01115 6.85281H8.45572V6.77762C8.45572 5.92609 9.14845 5.23336 9.99998 5.23336ZM8.45572 7.63406H9.01115C9.64494 7.63406 10.2474 7.39746 10.7083 6.97582L11.5442 7.46695V8.06523C11.5442 8.9168 10.8515 9.60953 9.99998 9.60953C9.14845 9.60953 8.45572 8.9168 8.45572 8.06527V7.63406ZM14.0069 14.0615H5.9931V12.5002C5.9931 11.3371 6.93939 10.3908 8.10248 10.3908H9.60935V12.0314C9.60935 12.2471 9.78427 12.422 9.99998 12.422C10.2157 12.422 10.3906 12.2471 10.3906 12.0314V10.3908H11.8975C13.0606 10.3908 14.0069 11.3371 14.0069 12.5002V14.0615Z" fill="#92A5D1"/>
<path d="M7.11736 7.80457L6.59916 7.28633C6.52592 7.21305 6.42654 7.17188 6.32295 7.17188C6.21936 7.17188 6.12002 7.21305 6.04674 7.28629L3.61959 9.7134C3.46705 9.86594 3.46705 10.1133 3.61959 10.2659C3.69592 10.3422 3.79588 10.3803 3.89584 10.3803C3.9958 10.3803 4.09576 10.3421 4.17205 10.2659L6.32295 8.115L6.5649 8.35699C6.71748 8.50949 6.96475 8.50957 7.11736 8.35699C7.2699 8.20445 7.2699 7.95715 7.11736 7.80457Z" fill="#92A5D1"/>
<path d="M15.3323 4.6416H14.2352C14.0195 4.6416 13.8446 4.81652 13.8446 5.03223C13.8446 5.24793 14.0195 5.42285 14.2352 5.42285H14.3885L12.9486 6.86273C12.7961 7.01527 12.7961 7.26262 12.9486 7.4152C13.0249 7.49145 13.1249 7.52961 13.2248 7.52961C13.3248 7.52961 13.4248 7.49145 13.5011 7.4152L14.9416 5.97461V6.12934C14.9416 6.34504 15.1165 6.51996 15.3323 6.51996C15.548 6.51996 15.7229 6.34504 15.7229 6.12934V5.03223C15.7229 4.81652 15.548 4.6416 15.3323 4.6416Z" fill="#92A5D1"/>
</svg>
