<svg width="148" height="85" viewBox="0 0 148 85" fill="none" xmlns="http://www.w3.org/2000/svg">
<path d="M112.834 82.7C112.834 84.15 111.811 85.0001 110.339 85.0001C108.941 85.0001 107.918 84.2001 107.818 82.975H109.34C109.415 83.4001 109.74 83.6751 110.314 83.6751C110.838 83.6751 111.262 83.35 111.262 82.725V82.2751C110.913 82.4751 110.513 82.6 109.989 82.6C108.741 82.6 107.693 81.6 107.693 80.325C107.693 78.9 108.741 77.925 109.989 77.925C110.488 77.925 110.913 78.05 111.262 78.275V78.1H112.809V82.7H112.834ZM111.287 80.95V79.6751C110.988 79.3501 110.663 79.25 110.339 79.25C109.715 79.25 109.241 79.7 109.241 80.375C109.241 80.875 109.69 81.4001 110.339 81.4001C110.663 81.3751 110.988 81.275 111.287 80.95Z" fill="#29437F"/>
<path d="M106.87 80.1251V82.7751H105.297V80.3751C105.297 79.7251 104.973 79.4001 104.449 79.4001C104.149 79.4001 103.85 79.5751 103.575 79.8751V82.8001H102.028V78.1501H103.575V78.4751C103.949 78.1751 104.349 78.0251 104.848 78.0251C106.071 77.9751 106.87 78.8001 106.87 80.1251Z" fill="#29437F"/>
<path d="M99.1326 76.5249C99.1326 76.0249 99.5319 75.6499 100.031 75.6499C100.53 75.6499 100.93 76.0249 100.93 76.5249C100.93 77.0249 100.53 77.3999 100.031 77.3999C99.5319 77.3999 99.1326 77.0249 99.1326 76.5249ZM100.83 82.7749H99.2823V78.1249H100.83V82.7749Z" fill="#29437F"/>
<path d="M94.9396 81.8751V82.7751H93.3922V75.9751H94.9396V79.8751L96.5619 78.1251H98.4088L96.6367 80.0251L98.5585 82.7751H96.7116L95.5885 81.1751L94.9396 81.8751Z" fill="#29437F"/>
<path d="M90.9713 80.875H92.4438C92.344 82.075 91.3457 82.9 90.0729 82.9C88.6003 82.9 87.5272 81.875 87.5272 80.475C87.5272 79.075 88.6003 78.05 90.0729 78.05C91.3457 78.05 92.344 78.875 92.4438 80.075H90.9713C90.8965 79.65 90.547 79.375 90.0729 79.375C89.4239 79.375 88.9997 79.85 88.9997 80.5C88.9997 81.125 89.399 81.625 90.0729 81.625C90.547 81.575 90.8965 81.3 90.9713 80.875Z" fill="#29437F"/>
<path d="M86.7036 80.875V80.9H83.3842C83.509 81.325 83.8334 81.65 84.4324 81.65C84.7569 81.65 85.0064 81.525 85.1312 81.325H86.6537C86.429 82.275 85.5555 82.9 84.3825 82.9C82.8601 82.9 81.8368 81.875 81.8368 80.475C81.8368 79.075 82.8351 78.05 84.3076 78.05C85.6553 78.05 86.6786 78.975 86.6786 80.375C86.7535 80.525 86.7535 80.7 86.7036 80.875ZM83.3842 80H85.281C85.2061 79.5 84.8567 79.225 84.3575 79.225C83.8334 79.225 83.509 79.525 83.3842 80Z" fill="#29437F"/>
<path d="M81.0381 80.125V82.775H79.4658V80.375C79.4658 79.725 79.1413 79.4 78.6172 79.4C78.3177 79.4 78.0182 79.575 77.7437 79.875V82.8H76.1963V76H77.7437V78.475C78.118 78.175 78.5174 78.025 79.0165 78.025C80.2395 77.975 81.0381 78.8 81.0381 80.125Z" fill="#29437F"/>
<path d="M73.5258 80.075H75.173C74.9733 81.775 73.7005 82.925 71.9035 82.925C69.9319 82.925 68.4594 81.5 68.4594 79.525C68.4594 77.55 69.9319 76.125 71.9035 76.125C73.6755 76.125 74.9733 77.275 75.173 78.975H73.5258C73.3511 78.15 72.7771 77.65 71.9035 77.65C70.8303 77.65 70.1066 78.45 70.1066 79.525C70.1066 80.6 70.8553 81.4 71.9035 81.4C72.7771 81.4 73.3511 80.875 73.5258 80.075Z" fill="#29437F"/>
<path d="M67.4361 80.1251V82.7751H65.8638V80.3751C65.8638 79.7251 65.5393 79.4001 65.0402 79.4001C64.7906 79.4001 64.566 79.5001 64.3413 79.7751C64.3413 79.9001 64.3663 80.0001 64.3663 80.1251V82.7751H62.8189V80.3751C62.8189 79.7251 62.4944 79.4001 61.9953 79.4001C61.7457 79.4001 61.5211 79.5251 61.2965 79.8001V82.7751H59.7491V78.1251H61.2965V78.4001C61.6209 78.1251 61.9454 77.9751 62.4445 77.9751C63.0186 77.9751 63.5177 78.2001 63.8671 78.6001C64.3663 78.1751 64.8155 77.9751 65.5144 77.9751C66.6125 77.9751 67.4361 78.8001 67.4361 80.1251Z" fill="#29437F"/>
<path d="M58.8257 80.4499C58.8257 81.8749 57.7774 82.9249 56.3049 82.9249C54.8324 82.9249 53.7842 81.8749 53.7842 80.4499C53.7842 79.0499 54.8324 78.0249 56.3049 78.0249C57.7774 78.0249 58.8257 79.0499 58.8257 80.4499ZM57.3532 80.4499C57.3532 79.8499 56.9289 79.3499 56.3049 79.3499C55.681 79.3499 55.2567 79.8499 55.2567 80.4499C55.2567 81.0749 55.681 81.5749 56.3049 81.5749C56.9289 81.5749 57.3532 81.0749 57.3532 80.4499Z" fill="#29437F"/>
<path d="M53.0105 80.4499C53.0105 81.8749 51.9622 82.9249 50.4897 82.9249C49.0172 82.9249 47.969 81.8749 47.969 80.4499C47.969 79.0499 49.0172 78.0249 50.4897 78.0249C51.9622 78.0249 53.0105 79.0499 53.0105 80.4499ZM51.538 80.4499C51.538 79.8499 51.1137 79.3499 50.4897 79.3499C49.8658 79.3499 49.4415 79.8499 49.4415 80.4499C49.4415 81.0749 49.8658 81.5749 50.4897 81.5749C51.1137 81.5749 51.538 81.0749 51.538 80.4499Z" fill="#29437F"/>
<path d="M43.4266 80.875V82.775H41.8044V76.25H44.6745C46.2718 76.25 47.37 77.125 47.37 78.55C47.37 79.45 46.8958 80.175 46.1221 80.575L47.7943 82.775H45.8476L44.4499 80.875H43.4266ZM44.6246 79.425C45.2486 79.425 45.7477 79.075 45.7477 78.55C45.7477 78.025 45.2486 77.675 44.6246 77.675H43.4266V79.425H44.6246Z" fill="#29437F"/>
<path d="M36.8128 80.8251H35.8644L36.3885 79.6001L35.1157 76.8501H36.0641L36.8378 78.5251L37.5366 76.8501H38.485L36.8128 80.8251Z" fill="#29437F"/>
<path d="M34.9659 78.225C34.9659 79.025 34.342 79.65 33.6182 79.65C33.3187 79.65 33.0692 79.575 32.8695 79.45V79.6H31.971V75.625H32.8695V77.05C33.0692 76.925 33.3187 76.85 33.6182 76.85C34.342 76.825 34.9659 77.425 34.9659 78.225ZM34.0675 78.225C34.0675 77.85 33.7929 77.55 33.4186 77.55C33.2189 77.55 33.0192 77.6 32.8445 77.8V78.65C33.0192 78.85 33.2189 78.9 33.4186 78.9C33.7929 78.9 34.0675 78.6 34.0675 78.225Z" fill="#29437F"/>
<path d="M117.502 52.2998V65.5248H106.171V19.8748H126.137C137.393 19.8748 144.98 26.0498 144.98 35.9248C144.98 42.2998 141.686 47.3498 136.27 50.0998L148 65.5498H134.323L124.54 52.2998H117.502ZM125.887 42.0998C130.255 42.0998 133.724 39.6748 133.724 35.9248C133.724 32.2248 130.23 29.8748 125.887 29.8748H117.502V42.0998H125.887Z" fill="#29437F"/>
<path d="M91.5453 29.2498H76.97V65.2747H88.2509V56.9998H90.8715C100.68 56.9998 107.044 51.4748 107.044 42.8998C107.044 34.5998 100.979 29.2498 91.5453 29.2498ZM91.3706 48.1748H88.2759V38.1248H91.3706C94.9646 38.1248 97.2607 39.9998 97.2607 42.9248C97.2357 46.1248 94.9396 48.1748 91.3706 48.1748Z" fill="#29437F"/>
<path d="M59.0003 29.3997C48.5679 29.3997 40.6563 37.3497 40.6563 47.4497C40.6563 57.5497 48.543 65.4997 59.0003 65.4997C69.4826 65.4997 77.3943 57.5497 77.3943 47.4497C77.3693 37.3747 69.4826 29.3997 59.0003 29.3997ZM58.7507 54.1997C54.8573 54.1997 51.9123 51.2247 51.9123 47.4497C51.9123 43.6747 54.8573 40.6997 58.7507 40.6997C62.6691 40.6997 65.6142 43.6747 65.6142 47.4497C65.6142 51.2497 62.6691 54.1997 58.7507 54.1997Z" fill="#29437F"/>
<path d="M41.2304 65.5247H29.8995V48.3997H11.3309V65.5247H0V19.8748H11.3309V38.1998H29.8995V19.8748H41.2304V65.5247Z" fill="#29437F"/>
<path d="M74.0998 0.174854C75.2229 5.92485 80.1147 10.8249 85.855 11.9499C86.1045 11.9999 86.1045 12.3499 85.855 12.3999C80.1147 13.5249 75.2229 18.4249 74.0998 24.1749C74.0499 24.4249 73.7005 24.4249 73.6506 24.1749C72.5275 18.4249 67.6357 13.5249 61.8954 12.3999C61.6459 12.3499 61.6459 11.9999 61.8954 11.9499C67.6357 10.8249 72.5275 5.92485 73.6506 0.174854C73.7005 -0.0501465 74.0499 -0.0501465 74.0998 0.174854Z" fill="#EF7373"/>
</svg>
