<svg width="1440" height="900" viewBox="0 0 1440 900" fill="none" xmlns="http://www.w3.org/2000/svg">
<g clip-path="url(#clip0_3444_7699)">
<g filter="url(#filter0_d_3444_7699)">
</g>
<path d="M19.8451 -129.955C168.262 200.773 356.745 -230.748 720.209 -243.618C736.027 -244.112 740.92 -223.02 726.5 -216.5C394.489 -68.0383 343.005 954.057 355.35 1316.35C355.821 1332.12 334.655 1337.03 328.136 1322.66C179.719 991.935 -185.113 765.389 -548.578 778.26C-564.396 778.754 -569.289 757.662 -554.868 751.141C-222.857 602.68 4.97685 238.651 -7.36895 -123.642C-7.49047 -137.903 13.6759 -142.813 19.8451 -129.955Z" fill="#9AFDAA"/>
<path d="M-207.545 1234.48C-91.1965 891.151 -204.314 476.868 -479.372 238.929C-491.298 228.526 -480.528 209.742 -465.525 214.779C-121.23 331.968 293.45 220.316 530.976 -53.5272C541.362 -65.3999 560.212 -54.5917 555.211 -39.631C438.863 303.694 551.98 717.976 827.039 955.915C838.964 966.319 828.194 985.102 813.192 980.065C468.897 862.877 54.2168 974.528 -183.309 1248.37C-192.926 1258.9 -211.776 1248.09 -207.545 1234.48Z" fill="#29437F"/>
<path d="M762.97 465.998C484.742 650.554 333.699 1016.11 400.005 1344.45C402.83 1358.75 384.399 1366.36 376.308 1354.24C191.519 1074.85 -173.5 922.519 -500.855 988.171C-515.112 990.968 -522.754 972.472 -510.68 964.391C-232.452 779.835 -81.4093 414.28 -147.714 85.9392C-150.54 71.6399 -132.109 64.0248 -124.018 76.1484C60.7711 355.535 425.79 507.87 753.145 442.218C766.085 439.965 773.727 458.461 762.97 465.998Z" fill="#EF7373"/>
</g>
<defs>
<filter id="filter0_d_3444_7699" x="812" y="112" width="453" height="647" filterUnits="userSpaceOnUse" color-interpolation-filters="sRGB">
<feFlood flood-opacity="0" result="BackgroundImageFix"/>
<feColorMatrix in="SourceAlpha" type="matrix" values="0 0 0 0 0 0 0 0 0 0 0 0 0 0 0 0 0 0 127 0" result="hardAlpha"/>
<feOffset dy="4"/>
<feGaussianBlur stdDeviation="12"/>
<feComposite in2="hardAlpha" operator="out"/>
<feColorMatrix type="matrix" values="0 0 0 0 0.6125 0 0 0 0 0.6125 0 0 0 0 0.6125 0 0 0 0.25 0"/>
<feBlend mode="normal" in2="BackgroundImageFix" result="effect1_dropShadow_3444_7699"/>
<feBlend mode="normal" in="SourceGraphic" in2="effect1_dropShadow_3444_7699" result="shape"/>
</filter>
<clipPath id="clip0_3444_7699">
<rect width="1440" height="900" fill="white"/>
</clipPath>
</defs>
</svg>
